<?xml version="1.0" encoding="UTF-8"?>
<!DOCTYPE svg PUBLIC "-//W3C//DTD SVG 1.1//EN" "http://www.w3.org/Graphics/SVG/1.1/DTD/svg11.dtd">
<svg xmlns="http://www.w3.org/2000/svg" version="1.1" width="620px" height="616px" style="shape-rendering:geometricPrecision; text-rendering:geometricPrecision; image-rendering:optimizeQuality; fill-rule:evenodd; clip-rule:evenodd" xmlns:xlink="http://www.w3.org/1999/xlink">
<g><path style="opacity:0.055" fill="#484848" d="M 260.5,-0.5 C 262.167,-0.5 263.833,-0.5 265.5,-0.5C 263.833,0.833333 262.167,0.833333 260.5,-0.5 Z"/></g>
<g><path style="opacity:0.075" fill="#595959" d="M 254.5,1.5 C 255.946,0.387053 257.613,0.220387 259.5,1C 257.866,1.49351 256.199,1.66018 254.5,1.5 Z"/></g>
<g><path style="opacity:0.004" fill="#555655" d="M 361.5,0.5 C 362.833,1.16667 362.833,1.16667 361.5,0.5 Z"/></g>
<g><path style="opacity:0.071" fill="#454545" d="M 249.5,2.5 C 250.601,1.40168 251.934,1.23502 253.5,2C 252.207,2.49001 250.873,2.65668 249.5,2.5 Z"/></g>
<g><path style="opacity:0.004" fill="#515151" d="M 366.5,2.5 C 366.897,1.47498 367.563,1.30831 368.5,2C 367.906,2.46434 367.239,2.63101 366.5,2.5 Z"/></g>
<g><path style="opacity:0.094" fill="#464646" d="M 244.5,3.5 C 245.601,2.40168 246.934,2.23502 248.5,3C 247.207,3.49001 245.873,3.65668 244.5,3.5 Z"/></g>
<g><path style="opacity:0.145" fill="#1d1d1d" d="M 240.5,4.5 C 241.251,3.42654 242.251,3.25988 243.5,4C 242.552,4.48278 241.552,4.64945 240.5,4.5 Z"/></g>
<g><path style="opacity:0.192" fill="#373737" d="M 236.5,5.5 C 237.251,4.42654 238.251,4.25988 239.5,5C 238.552,5.48278 237.552,5.64945 236.5,5.5 Z"/></g>
<g><path style="opacity:0.173" fill="#484848" d="M 232.5,6.5 C 233.251,5.42654 234.251,5.25988 235.5,6C 234.552,6.48278 233.552,6.64945 232.5,6.5 Z"/></g>
<g><path style="opacity:0.086" fill="#3f3f3f" d="M 228.5,7.5 C 229.251,6.42654 230.251,6.25988 231.5,7C 230.552,7.48278 229.552,7.64945 228.5,7.5 Z"/></g>
<g><path style="opacity:0.02" fill="#595959" d="M 224.5,8.5 C 225.251,7.42654 226.251,7.25988 227.5,8C 226.552,8.48278 225.552,8.64945 224.5,8.5 Z"/></g>
<g><path style="opacity:1" fill="#5a5a5a" d="M 291.5,7.5 C 404.959,4.9769 493.793,49.9769 558,142.5C 609.44,225.794 619.107,313.794 587,406.5C 543.824,510.33 466.99,573.164 356.5,595C 242.946,608.723 149.779,571.89 77,484.5C 13.5508,398.463 -1.44919,304.463 32,202.5C 67.618,111.549 131.785,50.7153 224.5,20C 246.535,13.4535 268.868,9.28681 291.5,7.5 Z M 443.5,425.5 C 443.56,424.957 443.893,424.624 444.5,424.5C 447.399,425.642 450.399,426.308 453.5,426.5C 448.155,404.309 435.822,387.142 416.5,375C 408.423,370.295 400.09,366.128 391.5,362.5C 378.863,347.525 366.196,332.525 353.5,317.5C 354.69,312.429 356.19,307.429 358,302.5C 365.783,283.936 373.283,265.27 380.5,246.5C 374.079,243.132 367.412,242.632 360.5,245C 345.118,249.905 329.618,254.405 314,258.5C 312.833,258.333 311.667,258.167 310.5,258C 309.237,255.614 307.403,253.781 305,252.5C 304.402,248.947 305.069,245.614 307,242.5C 314.033,234.796 322.2,228.63 331.5,224C 336.066,224.925 340.733,225.259 345.5,225C 347.552,222.294 350.219,220.294 353.5,219C 357.167,218 360.833,217 364.5,216C 365.863,214.055 366.697,211.888 367,209.5C 367.414,209.957 367.914,210.291 368.5,210.5C 370.986,207.755 373.986,205.755 377.5,204.5C 378.309,202.929 378.643,201.262 378.5,199.5C 381.747,199.585 384.581,198.585 387,196.5C 388.685,190.484 390.852,184.65 393.5,179C 393.5,175.667 392.167,173 389.5,171C 392.097,168.683 392.93,165.85 392,162.5C 390.104,160.47 387.937,158.803 385.5,157.5C 389.287,147.938 385.954,143.938 375.5,145.5C 375.67,144.178 375.337,143.011 374.5,142C 372.833,141.667 371.167,141.333 369.5,141C 368.768,137.099 366.434,135.265 362.5,135.5C 359.301,136.521 356.134,136.521 353,135.5C 349.457,136.687 345.957,138.02 342.5,139.5C 341.522,139.023 340.689,138.357 340,137.5C 337.815,138.928 335.815,140.595 334,142.5C 333.073,134.089 330.406,133.422 326,140.5C 324,137.833 322,137.833 320,140.5C 318.667,143.833 317.333,147.167 316,150.5C 309.901,151.687 307.568,155.354 309,161.5C 310.039,163.746 311.206,165.913 312.5,168C 307.471,171.56 304.638,176.393 304,182.5C 302.171,184.156 300.837,186.156 300,188.5C 297.187,190.15 294.687,192.15 292.5,194.5C 293.579,196.543 295.246,197.876 297.5,198.5C 297.833,199.833 298.167,201.167 298.5,202.5C 297.375,209.208 296.042,215.875 294.5,222.5C 295.162,225.468 295.495,228.468 295.5,231.5C 297.5,231.833 299.5,232.167 301.5,232.5C 301.037,238.221 299.37,243.555 296.5,248.5C 258.989,205.151 221.989,161.317 185.5,117C 236.205,82.5907 291.871,70.924 352.5,82C 428.268,98.9544 482.768,142.454 516,212.5C 549.841,298.956 537.841,378.29 480,450.5C 477.333,453.167 474.667,455.833 472,458.5C 462.261,447.603 452.761,436.603 443.5,425.5 Z M 258.5,279.5 C 254.275,285.6 250.275,291.933 246.5,298.5C 237.805,286.304 229.305,273.971 221,261.5C 221.239,256.127 222.072,250.794 223.5,245.5C 223.167,244.5 222.833,243.5 222.5,242.5C 219.49,241.731 216.49,240.897 213.5,240C 212.654,237.154 210.82,235.32 208,234.5C 185.709,241.792 183.875,252.292 202.5,266C 204.112,266.72 205.612,266.554 207,265.5C 219.613,283.779 232.613,301.779 246,319.5C 248.456,328.025 249.789,336.692 250,345.5C 244.081,341.791 238.248,337.958 232.5,334C 230.167,333.667 227.833,333.333 225.5,333C 214.591,327.378 203.591,322.045 192.5,317C 187.375,315.431 183.541,316.931 181,321.5C 180.39,325.236 180.723,328.903 182,332.5C 190.667,359.167 199.333,385.833 208,412.5C 210.003,418.346 211.169,424.346 211.5,430.5C 205.077,429.636 199.077,427.469 193.5,424C 181.692,414.595 169.359,405.928 156.5,398C 150.95,395.719 145.284,395.219 139.5,396.5C 140.306,401.78 142.473,406.446 146,410.5C 151.941,417.896 158.441,424.729 165.5,431C 182.444,437.237 199.777,442.237 217.5,446C 222.921,446.839 228.254,446.506 233.5,445C 235.095,441.243 234.429,437.91 231.5,435C 229.254,433.961 227.087,432.794 225,431.5C 221.342,419.189 217.675,406.856 214,394.5C 215.213,382.474 215.547,370.474 215,358.5C 216,359.833 217,361.167 218,362.5C 218.803,370.197 219.803,377.863 221,385.5C 221.501,390.867 224.168,394.534 229,396.5C 241.81,391.357 254.644,391.357 267.5,396.5C 273.581,404.994 279.414,413.661 285,422.5C 290.898,428.519 297.398,433.686 304.5,438C 312.833,446.333 321.167,454.667 329.5,463C 335.751,468.821 341.584,468.655 347,462.5C 356.058,448.282 364.892,433.948 373.5,419.5C 375.716,420.203 377.549,421.536 379,423.5C 397.123,445.959 415.623,468.126 434.5,490C 377.608,526.593 316.275,536.593 250.5,520C 179.926,498.761 130.093,454.261 101,386.5C 73.6835,312.012 81.6835,241.679 125,175.5C 131.75,166.079 139.25,157.246 147.5,149C 148.167,148.333 148.833,148.333 149.5,149C 185.668,192.665 222.001,236.165 258.5,279.5 Z M 344.5,307.5 C 335.476,296.148 326.476,284.814 317.5,273.5C 330.076,264.522 344.076,260.856 359.5,262.5C 354.665,277.671 349.665,292.671 344.5,307.5 Z M 297.5,328.5 C 299.716,329.203 301.549,330.536 303,332.5C 324.175,358.197 345.341,383.864 366.5,409.5C 358.276,415.216 350.776,421.883 344,429.5C 340.761,434.876 338.095,440.542 336,446.5C 330.881,435.931 326.048,425.265 321.5,414.5C 324.359,407.281 327.359,400.115 330.5,393C 316.252,395.126 305.752,389.959 299,377.5C 297.537,367.927 295.704,358.427 293.5,349C 296.888,342.575 298.221,335.742 297.5,328.5 Z"/></g>
<g><path style="opacity:0.008" fill="#4d4d4d" d="M 224.5,8.5 C 223.749,9.57346 222.749,9.74012 221.5,9C 222.448,8.51722 223.448,8.35055 224.5,8.5 Z"/></g>
<g><path style="opacity:0.004" fill="#373837" d="M 219.5,9.5 C 220.833,10.1667 220.833,10.1667 219.5,9.5 Z"/></g>
<g><path style="opacity:0.004" fill="#353535" d="M 215.5,11.5 C 215.897,10.475 216.563,10.3083 217.5,11C 216.906,11.4643 216.239,11.631 215.5,11.5 Z"/></g>
<g><path style="opacity:0.004" fill="#1c1d1c" d="M 210.5,12.5 C 211.833,13.1667 211.833,13.1667 210.5,12.5 Z"/></g>
<g><path style="opacity:0.004" fill="#2d2e2d" d="M 207.5,13.5 C 208.833,14.1667 208.833,14.1667 207.5,13.5 Z"/></g>
<g><path style="opacity:0.004" fill="#3f3f3f" d="M 411.5,14.5 C 411.897,13.475 412.563,13.3083 413.5,14C 412.906,14.4643 412.239,14.631 411.5,14.5 Z"/></g>
<g><path style="opacity:0.008" fill="#3b3b3b" d="M 203.5,15.5 C 203.897,14.475 204.563,14.3083 205.5,15C 204.906,15.4643 204.239,15.631 203.5,15.5 Z"/></g>
<g><path style="opacity:0.012" fill="#595959" d="M 416.5,15.5 C 415.761,15.631 415.094,15.4643 414.5,15C 415.437,14.3083 416.103,14.475 416.5,15.5 Z"/></g>
<g><path style="opacity:0.016" fill="#636363" d="M 203.5,15.5 C 203.103,16.525 202.437,16.6917 201.5,16C 202.094,15.5357 202.761,15.369 203.5,15.5 Z"/></g>
<g><path style="opacity:0.043" fill="#626262" d="M 416.5,15.5 C 417.791,15.2627 418.791,15.596 419.5,16.5C 418.209,16.7373 417.209,16.404 416.5,15.5 Z"/></g>
<g><path style="opacity:0.024" fill="#4a4a4a" d="M 198.5,17.5 C 198.897,16.475 199.563,16.3083 200.5,17C 199.906,17.4643 199.239,17.631 198.5,17.5 Z"/></g>
<g><path style="opacity:0.098" fill="#606060" d="M 419.5,16.5 C 420.492,16.3284 421.158,16.6618 421.5,17.5C 420.508,17.6716 419.842,17.3382 419.5,16.5 Z"/></g>
<g><path style="opacity:0.051" fill="#737373" d="M 198.5,17.5 C 198.103,18.525 197.437,18.6917 196.5,18C 197.094,17.5357 197.761,17.369 198.5,17.5 Z"/></g>
<g><path style="opacity:0.169" fill="#575757" d="M 421.5,17.5 C 422.791,17.2627 423.791,17.596 424.5,18.5C 423.209,18.7373 422.209,18.404 421.5,17.5 Z"/></g>
<g><path style="opacity:0.067" fill="#3d3d3d" d="M 193.5,19.5 C 193.897,18.475 194.563,18.3083 195.5,19C 194.906,19.4643 194.239,19.631 193.5,19.5 Z"/></g>
<g><path style="opacity:0.106" fill="#4b4b4b" d="M 424.5,18.5 C 425.492,18.3284 426.158,18.6618 426.5,19.5C 425.508,19.6716 424.842,19.3382 424.5,18.5 Z"/></g>
<g><path style="opacity:0.114" fill="#565656" d="M 193.5,19.5 C 193.103,20.525 192.437,20.6917 191.5,20C 192.094,19.5357 192.761,19.369 193.5,19.5 Z"/></g>
<g><path style="opacity:0.043" fill="#383838" d="M 426.5,19.5 C 427.239,19.369 427.906,19.5357 428.5,20C 427.563,20.6917 426.897,20.525 426.5,19.5 Z"/></g>
<g><path style="opacity:0.098" fill="#4d4d4d" d="M 188.5,21.5 C 188.897,20.475 189.563,20.3083 190.5,21C 189.906,21.4643 189.239,21.631 188.5,21.5 Z"/></g>
<g><path style="opacity:0.008" fill="#020302" d="M 429.5,20.5 C 430.833,21.1667 430.833,21.1667 429.5,20.5 Z"/></g>
<g><path style="opacity:0.098" fill="#313131" d="M 186.5,22.5 C 186.842,21.6618 187.508,21.3284 188.5,21.5C 188.158,22.3382 187.492,22.6716 186.5,22.5 Z"/></g>
<g><path style="opacity:0.071" fill="#6e6e6e" d="M 186.5,22.5 C 186.103,23.525 185.437,23.6917 184.5,23C 185.094,22.5357 185.761,22.369 186.5,22.5 Z"/></g>
<g><path style="opacity:0.012" fill="#171817" d="M 182.5,23.5 C 183.833,24.1667 183.833,24.1667 182.5,23.5 Z"/></g>
<g><path style="opacity:0.004" fill="#111211" d="M 180.5,24.5 C 181.833,25.1667 181.833,25.1667 180.5,24.5 Z"/></g>
<g><path style="opacity:0.004" fill="#2c2d2c" d="M 172.5,28.5 C 173.833,29.1667 173.833,29.1667 172.5,28.5 Z"/></g>
<g><path style="opacity:0.004" fill="#171817" d="M 170.5,29.5 C 171.833,30.1667 171.833,30.1667 170.5,29.5 Z"/></g>
<g><path style="opacity:0.004" fill="#525252" d="M 167.5,31.5 C 167.897,30.475 168.563,30.3083 169.5,31C 168.906,31.4643 168.239,31.631 167.5,31.5 Z"/></g>
<g><path style="opacity:0.008" fill="#464646" d="M 165.5,32.5 C 165.842,31.6618 166.508,31.3284 167.5,31.5C 167.158,32.3382 166.492,32.6716 165.5,32.5 Z"/></g>
<g><path style="opacity:0.008" fill="#1c1d1c" d="M 165.5,32.5 C 164.833,33.1667 164.833,33.1667 165.5,32.5 Z"/></g>
<g><path style="opacity:0.012" fill="#1d1e1d" d="M 162.5,33.5 C 163.833,34.1667 163.833,34.1667 162.5,33.5 Z"/></g>
<g><path style="opacity:0.031" fill="#707070" d="M 160.5,35.5 C 160.842,34.6618 161.508,34.3284 162.5,34.5C 162.158,35.3382 161.492,35.6716 160.5,35.5 Z"/></g>
<g><path style="opacity:0.035" fill="#606060" d="M 158.5,36.5 C 158.842,35.6618 159.508,35.3284 160.5,35.5C 160.158,36.3382 159.492,36.6716 158.5,36.5 Z"/></g>
<g><path style="opacity:0.039" fill="#0e0f0e" d="M 158.5,36.5 C 157.833,37.1667 157.833,37.1667 158.5,36.5 Z"/></g>
<g><path style="opacity:0.039" fill="#111211" d="M 155.5,37.5 C 156.833,38.1667 156.833,38.1667 155.5,37.5 Z"/></g>
<g><path style="opacity:0.075" fill="#797979" d="M 153.5,39.5 C 153.842,38.6618 154.508,38.3284 155.5,38.5C 155.158,39.3382 154.492,39.6716 153.5,39.5 Z"/></g>
<g><path style="opacity:0.067" fill="#414141" d="M 151.5,40.5 C 151.842,39.6618 152.508,39.3284 153.5,39.5C 153.158,40.3382 152.492,40.6716 151.5,40.5 Z"/></g>
<g><path style="opacity:0.063" fill="#1b1c1b" d="M 151.5,40.5 C 150.833,41.1667 150.833,41.1667 151.5,40.5 Z"/></g>
<g><path style="opacity:0.106" fill="#7a7a7a" d="M 148.5,42.5 C 148.842,41.6618 149.508,41.3284 150.5,41.5C 150.158,42.3382 149.492,42.6716 148.5,42.5 Z"/></g>
<g><path style="opacity:0.086" fill="#202120" d="M 148.5,42.5 C 147.833,43.1667 147.833,43.1667 148.5,42.5 Z"/></g>
<g><path style="opacity:0.133" fill="#7e7e7e" d="M 145.5,44.5 C 145.842,43.6618 146.508,43.3284 147.5,43.5C 147.158,44.3382 146.492,44.6716 145.5,44.5 Z"/></g>
<g><path style="opacity:0.122" fill="#212221" d="M 145.5,44.5 C 144.833,45.1667 144.833,45.1667 145.5,44.5 Z"/></g>
<g><path style="opacity:0.102" fill="#000100" d="M 142.5,45.5 C 143.833,46.1667 143.833,46.1667 142.5,45.5 Z"/></g>
<g><path style="opacity:0.137" fill="#262726" d="M 142.5,46.5 C 141.833,47.1667 141.833,47.1667 142.5,46.5 Z"/></g>
<g><path style="opacity:0.102" fill="#0e0f0e" d="M 139.5,47.5 C 140.833,48.1667 140.833,48.1667 139.5,47.5 Z"/></g>
<g><path style="opacity:0.129" fill="#686868" d="M 137.5,49.5 C 137.842,48.6618 138.508,48.3284 139.5,48.5C 139.158,49.3382 138.492,49.6716 137.5,49.5 Z"/></g>
<g><path style="opacity:0.004" fill="#878787" d="M 482.5,49.5 C 481.761,49.631 481.094,49.4643 480.5,49C 481.437,48.3083 482.103,48.475 482.5,49.5 Z"/></g>
<g><path style="opacity:0.071" fill="#090a09" d="M 137.5,49.5 C 136.833,50.1667 136.833,50.1667 137.5,49.5 Z"/></g>
<g><path style="opacity:0.012" fill="#222322" d="M 482.5,49.5 C 483.167,49.5 483.5,49.8333 483.5,50.5C 483.167,50.1667 482.833,49.8333 482.5,49.5 Z"/></g>
<g><path style="opacity:0.09" fill="#111211" d="M 136.5,50.5 C 135.833,51.1667 135.833,51.1667 136.5,50.5 Z"/></g>
<g><path style="opacity:0.027" fill="#272827" d="M 483.5,50.5 C 484.833,51.1667 484.833,51.1667 483.5,50.5 Z"/></g>
<g><path style="opacity:0.106" fill="#868686" d="M 133.5,52.5 C 133.842,51.6618 134.508,51.3284 135.5,51.5C 135.158,52.3382 134.492,52.6716 133.5,52.5 Z"/></g>
<g><path style="opacity:0.027" fill="#3a3b3a" d="M 486.5,52.5 C 485.833,51.1667 485.833,51.1667 486.5,52.5 Z"/></g>
<g><path style="opacity:0.059" fill="#1b1c1b" d="M 133.5,52.5 C 132.833,53.1667 132.833,53.1667 133.5,52.5 Z"/></g>
<g><path style="opacity:0.051" fill="#010201" d="M 486.5,52.5 C 487.167,52.5 487.5,52.8333 487.5,53.5C 487.167,53.1667 486.833,52.8333 486.5,52.5 Z"/></g>
<g><path style="opacity:0.078" fill="#7d7d7d" d="M 130.5,54.5 C 130.842,53.6618 131.508,53.3284 132.5,53.5C 132.158,54.3382 131.492,54.6716 130.5,54.5 Z"/></g>
<g><path style="opacity:0.027" fill="#7d7d7d" d="M 487.5,53.5 C 488.492,53.3284 489.158,53.6618 489.5,54.5C 488.508,54.6716 487.842,54.3382 487.5,53.5 Z"/></g>
<g><path style="opacity:0.051" fill="#232423" d="M 130.5,54.5 C 129.833,55.1667 129.833,55.1667 130.5,54.5 Z"/></g>
<g><path style="opacity:0.035" fill="#000000" d="M 489.5,54.5 C 490.167,54.5 490.5,54.8333 490.5,55.5C 490.167,55.1667 489.833,54.8333 489.5,54.5 Z"/></g>
<g><path style="opacity:0.067" fill="#181918" d="M 129.5,55.5 C 128.833,56.1667 128.833,56.1667 129.5,55.5 Z"/></g>
<g><path style="opacity:0.043" fill="#1c1d1c" d="M 490.5,55.5 C 491.833,56.1667 491.833,56.1667 490.5,55.5 Z"/></g>
<g><path style="opacity:0.086" fill="#8c8c8c" d="M 126.5,57.5 C 126.842,56.6618 127.508,56.3284 128.5,56.5C 128.158,57.3382 127.492,57.6716 126.5,57.5 Z"/></g>
<g><path style="opacity:0.012" fill="#4d4e4d" d="M 493.5,57.5 C 492.833,56.1667 492.833,56.1667 493.5,57.5 Z"/></g>
<g><path style="opacity:0.035" fill="#0e0f0e" d="M 126.5,57.5 C 125.833,58.1667 125.833,58.1667 126.5,57.5 Z"/></g>
<g><path style="opacity:0.012" fill="#171817" d="M 493.5,57.5 C 494.167,57.5 494.5,57.8333 494.5,58.5C 494.167,58.1667 493.833,57.8333 493.5,57.5 Z"/></g>
<g><path style="opacity:0.035" fill="#303130" d="M 125.5,58.5 C 124.833,59.1667 124.833,59.1667 125.5,58.5 Z"/></g>
<g><path style="opacity:0.012" fill="#202120" d="M 494.5,58.5 C 495.167,58.5 495.5,58.8333 495.5,59.5C 495.167,59.1667 494.833,58.8333 494.5,58.5 Z"/></g>
<g><path style="opacity:0.031" fill="#969696" d="M 122.5,60.5 C 122.842,59.6618 123.508,59.3284 124.5,59.5C 124.158,60.3382 123.492,60.6716 122.5,60.5 Z"/></g>
<g><path style="opacity:0.004" fill="#787878" d="M 495.5,59.5 C 496.492,59.3284 497.158,59.6618 497.5,60.5C 496.508,60.6716 495.842,60.3382 495.5,59.5 Z"/></g>
<g><path style="opacity:0.004" fill="#404140" d="M 122.5,60.5 C 121.833,61.1667 121.833,61.1667 122.5,60.5 Z"/></g>
<g><path style="opacity:0.004" fill="#121312" d="M 497.5,60.5 C 498.833,61.1667 498.833,61.1667 497.5,60.5 Z"/></g>
<g><path style="opacity:0.004" fill="#1c1d1c" d="M 121.5,61.5 C 120.833,62.1667 120.833,62.1667 121.5,61.5 Z"/></g>
<g><path style="opacity:0.004" fill="#3c3d3c" d="M 120.5,62.5 C 119.833,63.1667 119.833,63.1667 120.5,62.5 Z"/></g>
<g><path style="opacity:0.004" fill="#4f504f" d="M 499.5,62.5 C 500.833,63.1667 500.833,63.1667 499.5,62.5 Z"/></g>
<g><path style="opacity:0.004" fill="#575857" d="M 516.5,76.5 C 515.833,75.1667 515.833,75.1667 516.5,76.5 Z"/></g>
<g><path style="opacity:0.004" fill="#464746" d="M 516.5,76.5 C 517.167,76.5 517.5,76.8333 517.5,77.5C 517.167,77.1667 516.833,76.8333 516.5,76.5 Z"/></g>
<g><path style="opacity:0.004" fill="#1e1f1e" d="M 517.5,77.5 C 518.167,77.5 518.5,77.8333 518.5,78.5C 518.167,78.1667 517.833,77.8333 517.5,77.5 Z"/></g>
<g><path style="opacity:0.008" fill="#010201" d="M 518.5,78.5 C 519.167,78.5 519.5,78.8333 519.5,79.5C 519.167,79.1667 518.833,78.8333 518.5,78.5 Z"/></g>
<g><path style="opacity:0.004" fill="#242524" d="M 99.5,79.5 C 100.833,80.1667 100.833,80.1667 99.5,79.5 Z"/></g>
<g><path style="opacity:0.012" fill="#020302" d="M 519.5,79.5 C 520.167,79.5 520.5,79.8333 520.5,80.5C 520.167,80.1667 519.833,79.8333 519.5,79.5 Z"/></g>
<g><path style="opacity:0.004" fill="#090a09" d="M 99.5,80.5 C 98.8333,81.1667 98.8333,81.1667 99.5,80.5 Z"/></g>
<g><path style="opacity:0.02" fill="#0b0c0b" d="M 520.5,80.5 C 521.167,80.5 521.5,80.8333 521.5,81.5C 521.167,81.1667 520.833,80.8333 520.5,80.5 Z"/></g>
<g><path style="opacity:0.008" fill="#121312" d="M 98.5,81.5 C 97.8333,82.1667 97.8333,82.1667 98.5,81.5 Z"/></g>
<g><path style="opacity:0.024" fill="#1a1b1a" d="M 521.5,81.5 C 522.167,81.5 522.5,81.8333 522.5,82.5C 522.167,82.1667 521.833,81.8333 521.5,81.5 Z"/></g>
<g><path style="opacity:0.016" fill="#111211" d="M 97.5,82.5 C 96.8333,83.1667 96.8333,83.1667 97.5,82.5 Z"/></g>
<g><path style="opacity:0.027" fill="#1a1b1a" d="M 522.5,82.5 C 523.167,82.5 523.5,82.8333 523.5,83.5C 523.167,83.1667 522.833,82.8333 522.5,82.5 Z"/></g>
<g><path style="opacity:0.031" fill="#030403" d="M 96.5,83.5 C 95.8333,84.1667 95.8333,84.1667 96.5,83.5 Z"/></g>
<g><path style="opacity:0.024" fill="#323332" d="M 523.5,83.5 C 524.167,83.5 524.5,83.8333 524.5,84.5C 524.167,84.1667 523.833,83.8333 523.5,83.5 Z"/></g>
<g><path style="opacity:0.039" fill="#0c0d0c" d="M 95.5,84.5 C 94.8333,85.1667 94.8333,85.1667 95.5,84.5 Z"/></g>
<g><path style="opacity:0.024" fill="#2a2b2a" d="M 524.5,84.5 C 525.167,84.5 525.5,84.8333 525.5,85.5C 525.167,85.1667 524.833,84.8333 524.5,84.5 Z"/></g>
<g><path style="opacity:0.047" fill="#494a49" d="M 94.5,85.5 C 93.8333,86.1667 93.8333,86.1667 94.5,85.5 Z"/></g>
<g><path style="opacity:0.024" fill="#313231" d="M 525.5,85.5 C 526.167,85.5 526.5,85.8333 526.5,86.5C 526.167,86.1667 525.833,85.8333 525.5,85.5 Z"/></g>
<g><path style="opacity:0.055" fill="#222322" d="M 93.5,86.5 C 92.8333,87.1667 92.8333,87.1667 93.5,86.5 Z"/></g>
<g><path style="opacity:0.02" fill="#000100" d="M 526.5,86.5 C 527.167,86.5 527.5,86.8333 527.5,87.5C 527.167,87.1667 526.833,86.8333 526.5,86.5 Z"/></g>
<g><path style="opacity:0.047" fill="#303130" d="M 92.5,87.5 C 91.8333,88.1667 91.8333,88.1667 92.5,87.5 Z"/></g>
<g><path style="opacity:0.016" fill="#0f100f" d="M 527.5,87.5 C 528.167,87.5 528.5,87.8333 528.5,88.5C 528.167,88.1667 527.833,87.8333 527.5,87.5 Z"/></g>
<g><path style="opacity:0.043" fill="#080908" d="M 91.5,88.5 C 90.8333,89.1667 90.8333,89.1667 91.5,88.5 Z"/></g>
<g><path style="opacity:0.012" fill="#141514" d="M 528.5,88.5 C 529.167,88.5 529.5,88.8333 529.5,89.5C 529.167,89.1667 528.833,88.8333 528.5,88.5 Z"/></g>
<g><path style="opacity:0.039" fill="#181918" d="M 90.5,89.5 C 89.8333,90.1667 89.8333,90.1667 90.5,89.5 Z"/></g>
<g><path style="opacity:0.008" fill="#171817" d="M 529.5,89.5 C 530.167,89.5 530.5,89.8333 530.5,90.5C 530.167,90.1667 529.833,89.8333 529.5,89.5 Z"/></g>
<g><path style="opacity:0.031" fill="#1d1e1d" d="M 89.5,90.5 C 88.8333,91.1667 88.8333,91.1667 89.5,90.5 Z"/></g>
<g><path style="opacity:0.008" fill="#242524" d="M 530.5,90.5 C 531.167,90.5 531.5,90.8333 531.5,91.5C 531.167,91.1667 530.833,90.8333 530.5,90.5 Z"/></g>
<g><path style="opacity:0.024" fill="#0c0d0c" d="M 88.5,91.5 C 87.8333,92.1667 87.8333,92.1667 88.5,91.5 Z"/></g>
<g><path style="opacity:0.004" fill="#252625" d="M 531.5,91.5 C 532.167,91.5 532.5,91.8333 532.5,92.5C 532.167,92.1667 531.833,91.8333 531.5,91.5 Z"/></g>
<g><path style="opacity:0.02" fill="#030403" d="M 87.5,92.5 C 86.8333,93.1667 86.8333,93.1667 87.5,92.5 Z"/></g>
<g><path style="opacity:0.004" fill="#292a29" d="M 532.5,92.5 C 533.833,93.1667 533.833,93.1667 532.5,92.5 Z"/></g>
<g><path style="opacity:0.016" fill="#2e2f2e" d="M 86.5,93.5 C 85.8333,94.1667 85.8333,94.1667 86.5,93.5 Z"/></g>
<g><path style="opacity:0.012" fill="#232423" d="M 85.5,94.5 C 84.8333,95.1667 84.8333,95.1667 85.5,94.5 Z"/></g>
<g><path style="opacity:0.012" fill="#3b3c3b" d="M 84.5,95.5 C 83.8333,96.1667 83.8333,96.1667 84.5,95.5 Z"/></g>
<g><path style="opacity:0.008" fill="#323332" d="M 83.5,96.5 C 82.8333,97.1667 82.8333,97.1667 83.5,96.5 Z"/></g>
<g><path style="opacity:0.024" fill="#828282" d="M 82.5,97.5 C 82.6716,98.4916 82.3382,99.1583 81.5,99.5C 81.3284,98.5084 81.6618,97.8417 82.5,97.5 Z"/></g>
<g><path style="opacity:0.004" fill="#a6a7a6" d="M 537.5,98.5 C 538.833,99.1667 538.833,99.1667 537.5,98.5 Z"/></g>
<g><path style="opacity:0.02" fill="#6c6d6c" d="M 81.5,99.5 C 80.8333,100.167 80.8333,100.167 81.5,99.5 Z"/></g>
<g><path style="opacity:0.016" fill="#2b2c2b" d="M 80.5,100.5 C 79.8333,101.167 79.8333,101.167 80.5,100.5 Z"/></g>
<g><path style="opacity:0.016" fill="#000100" d="M 79.5,101.5 C 78.8333,102.167 78.8333,102.167 79.5,101.5 Z"/></g>
<g><path style="opacity:0.016" fill="#060706" d="M 78.5,102.5 C 77.8333,103.167 77.8333,103.167 78.5,102.5 Z"/></g>
<g><path style="opacity:0.016" fill="#2b2c2b" d="M 77.5,103.5 C 76.8333,104.167 76.8333,104.167 77.5,103.5 Z"/></g>
<g><path style="opacity:0.008" fill="#383938" d="M 76.5,104.5 C 75.8333,105.167 75.8333,105.167 76.5,104.5 Z"/></g>
<g><path style="opacity:0.035" fill="#7e7e7e" d="M 75.5,105.5 C 75.6716,106.492 75.3382,107.158 74.5,107.5C 74.3284,106.508 74.6618,105.842 75.5,105.5 Z"/></g>
<g><path style="opacity:0.031" fill="#4a4b4a" d="M 74.5,107.5 C 73.8333,108.167 73.8333,108.167 74.5,107.5 Z"/></g>
<g><path style="opacity:0.024" fill="#121312" d="M 73.5,108.5 C 72.8333,109.167 72.8333,109.167 73.5,108.5 Z"/></g>
<g><path style="opacity:0.02" fill="#050605" d="M 72.5,109.5 C 71.8333,110.167 71.8333,110.167 72.5,109.5 Z"/></g>
<g><path style="opacity:0.016" fill="#4e4f4e" d="M 71.5,110.5 C 70.8333,111.167 70.8333,111.167 71.5,110.5 Z"/></g>
<g><path style="opacity:0.035" fill="#373837" d="M 69.5,112.5 C 70.8333,113.167 70.8333,113.167 69.5,112.5 Z"/></g>
<g><path style="opacity:0.031" fill="#1d1e1d" d="M 69.5,113.5 C 68.8333,114.167 68.8333,114.167 69.5,113.5 Z"/></g>
<g><path style="opacity:0.027" fill="#181918" d="M 68.5,114.5 C 67.8333,115.167 67.8333,115.167 68.5,114.5 Z"/></g>
<g><path style="opacity:0.055" fill="#909090" d="M 67.5,115.5 C 67.6716,116.492 67.3382,117.158 66.5,117.5C 66.3284,116.508 66.6618,115.842 67.5,115.5 Z"/></g>
<g><path style="opacity:0.047" fill="#444544" d="M 66.5,117.5 C 65.8333,118.167 65.8333,118.167 66.5,117.5 Z"/></g>
<g><path style="opacity:0.035" fill="#161716" d="M 65.5,118.5 C 64.8333,119.167 64.8333,119.167 65.5,118.5 Z"/></g>
<g><path style="opacity:0.071" fill="#929292" d="M 64.5,119.5 C 64.6716,120.492 64.3382,121.158 63.5,121.5C 63.3284,120.508 63.6618,119.842 64.5,119.5 Z"/></g>
<g><path style="opacity:0.004" fill="#8e8f8e" d="M 556.5,121.5 C 555.833,120.167 555.833,120.167 556.5,121.5 Z"/></g>
<g><path style="opacity:0.055" fill="#1a1b1a" d="M 63.5,121.5 C 62.8333,122.167 62.8333,122.167 63.5,121.5 Z"/></g>
<g><path style="opacity:0.004" fill="#020302" d="M 556.5,121.5 C 557.833,122.167 557.833,122.167 556.5,121.5 Z"/></g>
<g><path style="opacity:0.043" fill="#0a0b0a" d="M 62.5,122.5 C 61.8333,123.167 61.8333,123.167 62.5,122.5 Z"/></g>
<g><path style="opacity:0.067" fill="#919191" d="M 61.5,123.5 C 61.6716,124.492 61.3382,125.158 60.5,125.5C 60.3284,124.508 60.6618,123.842 61.5,123.5 Z"/></g>
<g><path style="opacity:0.004" fill="#686968" d="M 559.5,125.5 C 558.833,124.167 558.833,124.167 559.5,125.5 Z"/></g>
<g><path style="opacity:0.043" fill="#1b1c1b" d="M 60.5,125.5 C 59.8333,126.167 59.8333,126.167 60.5,125.5 Z"/></g>
<g><path style="opacity:0.004" fill="#020302" d="M 559.5,125.5 C 560.833,126.167 560.833,126.167 559.5,125.5 Z"/></g>
<g><path style="opacity:0.027" fill="#525352" d="M 59.5,126.5 C 58.8333,127.167 58.8333,127.167 59.5,126.5 Z"/></g>
<g><path style="opacity:0.008" fill="#abacab" d="M 561.5,128.5 C 560.833,127.167 560.833,127.167 561.5,128.5 Z"/></g>
<g><path style="opacity:0.043" fill="#585858" d="M 58.5,127.5 C 58.6716,128.492 58.3382,129.158 57.5,129.5C 57.3284,128.508 57.6618,127.842 58.5,127.5 Z"/></g>
<g><path style="opacity:0.008" fill="#2f302f" d="M 561.5,128.5 C 562.167,128.5 562.5,128.833 562.5,129.5C 562.167,129.167 561.833,128.833 561.5,128.5 Z"/></g>
<g><path style="opacity:0.024" fill="#111211" d="M 57.5,129.5 C 56.8333,130.167 56.8333,130.167 57.5,129.5 Z"/></g>
<g><path style="opacity:0.004" fill="#181918" d="M 562.5,129.5 C 563.167,129.5 563.5,129.833 563.5,130.5C 563.167,130.167 562.833,129.833 562.5,129.5 Z"/></g>
<g><path style="opacity:0.035" fill="#5a5a5a" d="M 56.5,130.5 C 56.6716,131.492 56.3382,132.158 55.5,132.5C 55.3284,131.508 55.6618,130.842 56.5,130.5 Z"/></g>
<g><path style="opacity:0.008" fill="#5d5d5d" d="M 563.5,130.5 C 564.338,130.842 564.672,131.508 564.5,132.5C 563.662,132.158 563.328,131.492 563.5,130.5 Z"/></g>
<g><path style="opacity:0.02" fill="#292a29" d="M 55.5,132.5 C 54.8333,133.167 54.8333,133.167 55.5,132.5 Z"/></g>
<g><path style="opacity:0.004" fill="#1c1d1c" d="M 564.5,132.5 C 565.167,132.5 565.5,132.833 565.5,133.5C 565.167,133.167 564.833,132.833 564.5,132.5 Z"/></g>
<g><path style="opacity:0.027" fill="#5e5e5e" d="M 54.5,133.5 C 54.6716,134.492 54.3382,135.158 53.5,135.5C 53.3284,134.508 53.6618,133.842 54.5,133.5 Z"/></g>
<g><path style="opacity:0.008" fill="#666666" d="M 565.5,133.5 C 566.338,133.842 566.672,134.508 566.5,135.5C 565.662,135.158 565.328,134.492 565.5,133.5 Z"/></g>
<g><path style="opacity:0.016" fill="#000000" d="M 53.5,135.5 C 52.8333,136.167 52.8333,136.167 53.5,135.5 Z"/></g>
<g><path style="opacity:1" fill="#1b1b1b" d="M 353.5,317.5 C 350.49,314.126 347.49,310.792 344.5,307.5C 349.665,292.671 354.665,277.671 359.5,262.5C 344.076,260.856 330.076,264.522 317.5,273.5C 309.807,265.802 302.807,257.469 296.5,248.5C 299.37,243.555 301.037,238.221 301.5,232.5C 299.5,232.167 297.5,231.833 295.5,231.5C 295.495,228.468 295.162,225.468 294.5,222.5C 296.042,215.875 297.375,209.208 298.5,202.5C 298.167,201.167 297.833,199.833 297.5,198.5C 295.246,197.876 293.579,196.543 292.5,194.5C 294.687,192.15 297.187,190.15 300,188.5C 300.837,186.156 302.171,184.156 304,182.5C 304.638,176.393 307.471,171.56 312.5,168C 311.206,165.913 310.039,163.746 309,161.5C 307.568,155.354 309.901,151.687 316,150.5C 317.333,147.167 318.667,143.833 320,140.5C 322,137.833 324,137.833 326,140.5C 330.406,133.422 333.073,134.089 334,142.5C 335.815,140.595 337.815,138.928 340,137.5C 340.689,138.357 341.522,139.023 342.5,139.5C 345.957,138.02 349.457,136.687 353,135.5C 356.134,136.521 359.301,136.521 362.5,135.5C 366.434,135.265 368.768,137.099 369.5,141C 371.167,141.333 372.833,141.667 374.5,142C 375.337,143.011 375.67,144.178 375.5,145.5C 385.954,143.938 389.287,147.938 385.5,157.5C 387.937,158.803 390.104,160.47 392,162.5C 392.93,165.85 392.097,168.683 389.5,171C 392.167,173 393.5,175.667 393.5,179C 390.852,184.65 388.685,190.484 387,196.5C 384.581,198.585 381.747,199.585 378.5,199.5C 378.643,201.262 378.309,202.929 377.5,204.5C 373.986,205.755 370.986,207.755 368.5,210.5C 367.914,210.291 367.414,209.957 367,209.5C 366.697,211.888 365.863,214.055 364.5,216C 360.833,217 357.167,218 353.5,219C 350.219,220.294 347.552,222.294 345.5,225C 340.733,225.259 336.066,224.925 331.5,224C 322.2,228.63 314.033,234.796 307,242.5C 305.069,245.614 304.402,248.947 305,252.5C 307.403,253.781 309.237,255.614 310.5,258C 311.667,258.167 312.833,258.333 314,258.5C 329.618,254.405 345.118,249.905 360.5,245C 367.412,242.632 374.079,243.132 380.5,246.5C 373.283,265.27 365.783,283.936 358,302.5C 356.19,307.429 354.69,312.429 353.5,317.5 Z"/></g>
<g><path style="opacity:0.004" fill="#070807" d="M 566.5,135.5 C 567.833,136.167 567.833,136.167 566.5,135.5 Z"/></g>
<g><path style="opacity:1" fill="#4c4c4c" d="M 434.5,139.5 C 435.429,138.685 436.429,137.852 437.5,137C 434.997,135.78 432.331,135.447 429.5,136C 432.866,134.121 436.2,134.121 439.5,136C 438.781,138.556 437.114,139.723 434.5,139.5 Z"/></g>
<g><path style="opacity:0.024" fill="#363736" d="M 51.5,137.5 C 52.8333,138.167 52.8333,138.167 51.5,137.5 Z"/></g>
<g><path style="opacity:0.008" fill="#383938" d="M 568.5,138.5 C 567.833,137.167 567.833,137.167 568.5,138.5 Z"/></g>
<g><path style="opacity:0.012" fill="#1b1c1b" d="M 51.5,138.5 C 50.8333,139.167 50.8333,139.167 51.5,138.5 Z"/></g>
<g><path style="opacity:0.004" fill="#080908" d="M 568.5,138.5 C 569.833,139.167 569.833,139.167 568.5,138.5 Z"/></g>
<g><path style="opacity:1" fill="#525252" d="M 425.5,138.5 C 425.027,139.906 424.027,140.573 422.5,140.5C 422.973,139.094 423.973,138.427 425.5,138.5 Z"/></g>
<g><path style="opacity:0.02" fill="#111211" d="M 49.5,140.5 C 50.8333,141.167 50.8333,141.167 49.5,140.5 Z"/></g>
<g><path style="opacity:0.004" fill="#131413" d="M 570.5,141.5 C 569.833,140.167 569.833,140.167 570.5,141.5 Z"/></g>
<g><path style="opacity:0.008" fill="#6d6d6d" d="M 570.5,141.5 C 571.338,141.842 571.672,142.508 571.5,143.5C 570.662,143.158 570.328,142.492 570.5,141.5 Z"/></g>
<g><path style="opacity:0.035" fill="#7b7b7b" d="M 49.5,141.5 C 49.6716,142.492 49.3382,143.158 48.5,143.5C 48.3284,142.508 48.6618,141.842 49.5,141.5 Z"/></g>
<g><path style="opacity:1" fill="#3a3a3a" d="M 422.5,140.5 C 421.341,142.25 419.674,143.25 417.5,143.5C 418.659,141.75 420.326,140.75 422.5,140.5 Z"/></g>
<g><path style="opacity:0.024" fill="#101110" d="M 48.5,143.5 C 47.8333,144.167 47.8333,144.167 48.5,143.5 Z"/></g>
<g><path style="opacity:0.008" fill="#1a1b1a" d="M 571.5,143.5 C 572.833,144.167 572.833,144.167 571.5,143.5 Z"/></g>
<g><path style="opacity:0.039" fill="#464646" d="M 47.5,144.5 C 47.6716,145.492 47.3382,146.158 46.5,146.5C 46.3284,145.508 46.6618,144.842 47.5,144.5 Z"/></g>
<g><path style="opacity:0.016" fill="#1e1f1e" d="M 573.5,146.5 C 572.833,145.167 572.833,145.167 573.5,146.5 Z"/></g>
<g><path style="opacity:0.055" fill="#666666" d="M 46.5,146.5 C 46.6716,147.492 46.3382,148.158 45.5,148.5C 45.3284,147.508 45.6618,146.842 46.5,146.5 Z"/></g>
<g><path style="opacity:0.039" fill="#626262" d="M 573.5,146.5 C 574.338,146.842 574.672,147.508 574.5,148.5C 573.662,148.158 573.328,147.492 573.5,146.5 Z"/></g>
<g><path style="opacity:0.031" fill="#131413" d="M 45.5,148.5 C 44.8333,149.167 44.8333,149.167 45.5,148.5 Z"/></g>
<g><path style="opacity:0.031" fill="#0b0c0b" d="M 574.5,148.5 C 575.833,149.167 575.833,149.167 574.5,148.5 Z"/></g>
<g><path style="opacity:0.035" fill="#313231" d="M 43.5,150.5 C 44.8333,151.167 44.8333,151.167 43.5,150.5 Z"/></g>
<g><path style="opacity:0.063" fill="#000100" d="M 576.5,151.5 C 575.833,150.167 575.833,150.167 576.5,151.5 Z"/></g>
<g><path style="opacity:0.039" fill="#595959" d="M 43.5,151.5 C 43.6716,152.492 43.3382,153.158 42.5,153.5C 42.3284,152.508 42.6618,151.842 43.5,151.5 Z"/></g>
<g><path style="opacity:0.067" fill="#4e4e4e" d="M 576.5,151.5 C 577.338,151.842 577.672,152.508 577.5,153.5C 576.662,153.158 576.328,152.492 576.5,151.5 Z"/></g>
<g><path style="opacity:0.035" fill="#696969" d="M 42.5,153.5 C 42.6716,154.492 42.3382,155.158 41.5,155.5C 41.3284,154.508 41.6618,153.842 42.5,153.5 Z"/></g>
<g><path style="opacity:0.035" fill="#676767" d="M 577.5,153.5 C 578.338,153.842 578.672,154.508 578.5,155.5C 577.662,155.158 577.328,154.492 577.5,153.5 Z"/></g>
<g><path style="opacity:0.016" fill="#040504" d="M 41.5,155.5 C 40.8333,156.167 40.8333,156.167 41.5,155.5 Z"/></g>
<g><path style="opacity:0.008" fill="#242524" d="M 578.5,155.5 C 579.833,156.167 579.833,156.167 578.5,155.5 Z"/></g>
<g><path style="opacity:0.012" fill="#171817" d="M 39.5,157.5 C 40.8333,158.167 40.8333,158.167 39.5,157.5 Z"/></g>
<g><path style="opacity:1" fill="#303030" d="M 477.5,165.5 C 475.973,165.573 474.973,164.906 474.5,163.5C 475.833,163.167 475.833,162.833 474.5,162.5C 473.327,160.496 471.66,158.996 469.5,158C 464.917,156.855 460.251,156.189 455.5,156C 463.694,154.103 470.861,155.936 477,161.5C 477.49,162.793 477.657,164.127 477.5,165.5 Z"/></g>
<g><path style="opacity:0.004" fill="#000100" d="M 579.5,157.5 C 580.833,158.167 580.833,158.167 579.5,157.5 Z"/></g>
<g><path style="opacity:0.008" fill="#050605" d="M 38.5,159.5 C 39.8333,160.167 39.8333,160.167 38.5,159.5 Z"/></g>
<g><path style="opacity:0.008" fill="#444444" d="M 38.5,160.5 C 38.6716,161.492 38.3382,162.158 37.5,162.5C 37.3284,161.508 37.6618,160.842 38.5,160.5 Z"/></g>
<g><path style="opacity:0.004" fill="#464646" d="M 37.5,162.5 C 37.6716,163.492 37.3382,164.158 36.5,164.5C 36.3284,163.508 36.6618,162.842 37.5,162.5 Z"/></g>
<g><path style="opacity:0.004" fill="#3e3e3e" d="M 36.5,164.5 C 36.631,165.239 36.4643,165.906 36,166.5C 35.3083,165.563 35.475,164.897 36.5,164.5 Z"/></g>
<g><path style="opacity:1" fill="#373737" d="M 409.5,166.5 C 412.024,165.2 414.691,165.2 417.5,166.5C 414.92,169.063 412.253,169.063 409.5,166.5 Z"/></g>
<g><path style="opacity:0.004" fill="#252625" d="M 34.5,167.5 C 35.8333,168.167 35.8333,168.167 34.5,167.5 Z"/></g>
<g><path style="opacity:1" fill="#505050" d="M 406.5,166.5 C 407.239,166.369 407.906,166.536 408.5,167C 407.534,168.678 406.201,169.345 404.5,169C 405.381,168.292 406.047,167.458 406.5,166.5 Z"/></g>
<g><path style="opacity:0.004" fill="#292a29" d="M 585.5,168.5 C 584.833,167.167 584.833,167.167 585.5,168.5 Z"/></g>
<g><path style="opacity:0.004" fill="#323332" d="M 33.5,169.5 C 34.8333,170.167 34.8333,170.167 33.5,169.5 Z"/></g>
<g><path style="opacity:0.012" fill="#696969" d="M 585.5,168.5 C 586.338,168.842 586.672,169.508 586.5,170.5C 585.662,170.158 585.328,169.492 585.5,168.5 Z"/></g>
<g><path style="opacity:0.004" fill="#252625" d="M 32.5,171.5 C 33.8333,172.167 33.8333,172.167 32.5,171.5 Z"/></g>
<g><path style="opacity:0.027" fill="#3e3e3e" d="M 586.5,170.5 C 587.525,170.897 587.692,171.563 587,172.5C 586.536,171.906 586.369,171.239 586.5,170.5 Z"/></g>
<g><path style="opacity:0.004" fill="#131413" d="M 31.5,173.5 C 32.8333,174.167 32.8333,174.167 31.5,173.5 Z"/></g>
<g><path style="opacity:0.055" fill="#0d0e0d" d="M 587.5,173.5 C 588.833,174.167 588.833,174.167 587.5,173.5 Z"/></g>
<g><path style="opacity:0.133" fill="#797979" d="M 589.5,177.5 C 588.475,177.103 588.308,176.437 589,175.5C 589.464,176.094 589.631,176.761 589.5,177.5 Z"/></g>
<g><path style="opacity:0.004" fill="#858685" d="M 29.5,178.5 C 30.8333,179.167 30.8333,179.167 29.5,178.5 Z"/></g>
<g><path style="opacity:0.137" fill="#6f6f6f" d="M 589.5,177.5 C 590.338,177.842 590.672,178.508 590.5,179.5C 589.662,179.158 589.328,178.492 589.5,177.5 Z"/></g>
<g><path style="opacity:0.004" fill="#333433" d="M 28.5,180.5 C 29.8333,181.167 29.8333,181.167 28.5,180.5 Z"/></g>
<g><path style="opacity:0.122" fill="#3e3e3e" d="M 590.5,179.5 C 591.338,179.842 591.672,180.508 591.5,181.5C 590.662,181.158 590.328,180.492 590.5,179.5 Z"/></g>
<g><path style="opacity:0.004" fill="#141514" d="M 27.5,182.5 C 28.8333,183.167 28.8333,183.167 27.5,182.5 Z"/></g>
<g><path style="opacity:0.094" fill="#3c3c3c" d="M 591.5,181.5 C 592.525,181.897 592.692,182.563 592,183.5C 591.536,182.906 591.369,182.239 591.5,181.5 Z"/></g>
<g><path style="opacity:0.004" fill="#5e5e5e" d="M 26.5,184.5 C 27.525,184.897 27.6917,185.563 27,186.5C 26.5357,185.906 26.369,185.239 26.5,184.5 Z"/></g>
<g><path style="opacity:0.094" fill="#515151" d="M 593.5,186.5 C 592.475,186.103 592.308,185.437 593,184.5C 593.464,185.094 593.631,185.761 593.5,186.5 Z"/></g>
<g><path style="opacity:0.004" fill="#333433" d="M 25.5,187.5 C 26.8333,188.167 26.8333,188.167 25.5,187.5 Z"/></g>
<g><path style="opacity:0.051" fill="#3b3b3b" d="M 593.5,186.5 C 594.525,186.897 594.692,187.563 594,188.5C 593.536,187.906 593.369,187.239 593.5,186.5 Z"/></g>
<g><path style="opacity:0.008" fill="#787878" d="M 24.5,191.5 C 24.369,190.761 24.5357,190.094 25,189.5C 25.6917,190.437 25.525,191.103 24.5,191.5 Z"/></g>
<g><path style="opacity:0.035" fill="#696969" d="M 595.5,191.5 C 594.475,191.103 594.308,190.437 595,189.5C 595.464,190.094 595.631,190.761 595.5,191.5 Z"/></g>
<g><path style="opacity:0.008" fill="#4d4d4d" d="M 24.5,191.5 C 24.631,192.239 24.4643,192.906 24,193.5C 23.3083,192.563 23.475,191.897 24.5,191.5 Z"/></g>
<g><path style="opacity:0.012" fill="#484848" d="M 595.5,191.5 C 596.525,191.897 596.692,192.563 596,193.5C 595.536,192.906 595.369,192.239 595.5,191.5 Z"/></g>
<g><path style="opacity:0.027" fill="#656565" d="M 22.5,196.5 C 22.369,195.761 22.5357,195.094 23,194.5C 23.6917,195.437 23.525,196.103 22.5,196.5 Z"/></g>
<g><path style="opacity:0.004" fill="#5a5a5a" d="M 596.5,194.5 C 597.525,194.897 597.692,195.563 597,196.5C 596.536,195.906 596.369,195.239 596.5,194.5 Z"/></g>
<g><path style="opacity:0.031" fill="#2b2b2b" d="M 22.5,196.5 C 22.631,197.239 22.4643,197.906 22,198.5C 21.3083,197.563 21.475,196.897 22.5,196.5 Z"/></g>
<g><path style="opacity:0.004" fill="#080908" d="M 597.5,197.5 C 598.833,198.167 598.833,198.167 597.5,197.5 Z"/></g>
<g><path style="opacity:0.078" fill="#2f2f2f" d="M 20.5,199.5 C 21.525,199.897 21.6917,200.563 21,201.5C 20.5357,200.906 20.369,200.239 20.5,199.5 Z"/></g>
<g><path style="opacity:0.145" fill="#2c2c2c" d="M 19.5,202.5 C 20.525,202.897 20.6917,203.563 20,204.5C 19.5357,203.906 19.369,203.239 19.5,202.5 Z"/></g>
<g><path style="opacity:0.196" fill="#292929" d="M 18.5,205.5 C 19.525,205.897 19.6917,206.563 19,207.5C 18.5357,206.906 18.369,206.239 18.5,205.5 Z"/></g>
<g><path style="opacity:0.188" fill="#3b3b3b" d="M 17.5,208.5 C 18.525,208.897 18.6917,209.563 18,210.5C 17.5357,209.906 17.369,209.239 17.5,208.5 Z"/></g>
<g><path style="opacity:0.145" fill="#2c2c2c" d="M 16.5,211.5 C 17.525,211.897 17.6917,212.563 17,213.5C 16.5357,212.906 16.369,212.239 16.5,211.5 Z"/></g>
<g><path style="opacity:0.098" fill="#474747" d="M 15.5,217.5 C 15.3505,216.448 15.5172,215.448 16,214.5C 16.7401,215.749 16.5735,216.749 15.5,217.5 Z"/></g>
<g><path style="opacity:0.063" fill="#4d4d4d" d="M 15.5,217.5 C 15.6495,218.552 15.4828,219.552 15,220.5C 14.2599,219.251 14.4265,218.251 15.5,217.5 Z"/></g>
<g><path style="opacity:0.047" fill="#434343" d="M 13.5,221.5 C 14.5735,222.251 14.7401,223.251 14,224.5C 13.5172,223.552 13.3505,222.552 13.5,221.5 Z"/></g>
<g><path style="opacity:0.025" fill="#4a4a4a" d="M 12.5,225.5 C 13.5735,226.251 13.7401,227.251 13,228.5C 12.5172,227.552 12.3505,226.552 12.5,225.5 Z"/></g>
<g><path style="opacity:0.012" fill="#363636" d="M 11.5,229.5 C 12.5735,230.251 12.7401,231.251 12,232.5C 11.5172,231.552 11.3505,230.552 11.5,229.5 Z"/></g>
<g><path style="opacity:0.004" fill="#272727" d="M 10.5,233.5 C 11.5735,234.251 11.7401,235.251 11,236.5C 10.5172,235.552 10.3505,234.552 10.5,233.5 Z"/></g>
<g><path style="opacity:0.004" fill="#787878" d="M 9.5,239.5 C 10.525,239.897 10.6917,240.563 10,241.5C 9.53566,240.906 9.36899,240.239 9.5,239.5 Z"/></g>
<g><path style="opacity:0.004" fill="#8b8c8b" d="M 8.5,245.5 C 9.83333,246.167 9.83333,246.167 8.5,245.5 Z"/></g>
<g><path style="opacity:0.004" fill="#b2b3b2" d="M 7.5,251.5 C 8.83333,252.167 8.83333,252.167 7.5,251.5 Z"/></g>
<g><path style="opacity:0.004" fill="#abacab" d="M 611.5,251.5 C 612.833,252.167 612.833,252.167 611.5,251.5 Z"/></g>
<g><path style="opacity:0.008" fill="#4d4d4d" d="M 612.5,254.5 C 613.598,255.601 613.765,256.934 613,258.5C 612.51,257.207 612.343,255.873 612.5,254.5 Z"/></g>
<g><path style="opacity:0.016" fill="#666666" d="M 6.5,254.5 C 7.59832,255.601 7.76498,256.934 7,258.5C 6.50999,257.207 6.34332,255.873 6.5,254.5 Z"/></g>
<g><path style="opacity:0.043" fill="#535353" d="M 5.5,259.5 C 6.62247,261.288 6.78914,263.288 6,265.5C 5.50454,263.527 5.33788,261.527 5.5,259.5 Z"/></g>
<g><path style="opacity:0.027" fill="#555555" d="M 613.5,259.5 C 614.622,261.288 614.789,263.288 614,265.5C 613.505,263.527 613.338,261.527 613.5,259.5 Z"/></g>
<g><path style="opacity:0.212" fill="#484848" d="M 4.5,267.5 C 5.62914,269.628 5.79581,271.961 5,274.5C 4.50335,272.19 4.33669,269.857 4.5,267.5 Z"/></g>
<g><path style="opacity:0.012" fill="#444444" d="M 614.5,267.5 C 615.629,269.628 615.796,271.961 615,274.5C 614.503,272.19 614.337,269.857 614.5,267.5 Z"/></g>
<g><path style="opacity:0.004" fill="#393a39" d="M 615.5,279.5 C 616.833,280.167 616.833,280.167 615.5,279.5 Z"/></g>
<g><path style="opacity:0.078" fill="#424242" d="M 3.5,277.5 C 4.64528,281.311 4.81194,285.311 4,289.5C 3.50115,285.514 3.33449,281.514 3.5,277.5 Z"/></g>
<g><path style="opacity:0.004" fill="#707070" d="M 615.5,285.5 C 616.573,286.251 616.74,287.251 616,288.5C 615.517,287.552 615.351,286.552 615.5,285.5 Z"/></g>
<g><path style="opacity:1" fill="#1b1b1b" d="M 258.5,279.5 C 270.456,293.961 282.623,308.294 295,322.5C 296.559,324.217 297.392,326.217 297.5,328.5C 298.221,335.742 296.888,342.575 293.5,349C 295.704,358.427 297.537,367.927 299,377.5C 305.752,389.959 316.252,395.126 330.5,393C 327.359,400.115 324.359,407.281 321.5,414.5C 326.048,425.265 330.881,435.931 336,446.5C 338.095,440.542 340.761,434.876 344,429.5C 350.776,421.883 358.276,415.216 366.5,409.5C 368.934,412.438 371.601,415.271 374.5,418C 373.944,418.383 373.611,418.883 373.5,419.5C 364.892,433.948 356.058,448.282 347,462.5C 341.584,468.655 335.751,468.821 329.5,463C 321.167,454.667 312.833,446.333 304.5,438C 297.398,433.686 290.898,428.519 285,422.5C 279.414,413.661 273.581,404.994 267.5,396.5C 254.644,391.357 241.81,391.357 229,396.5C 224.168,394.534 221.501,390.867 221,385.5C 219.803,377.863 218.803,370.197 218,362.5C 217,361.167 216,359.833 215,358.5C 215.547,370.474 215.213,382.474 214,394.5C 217.675,406.856 221.342,419.189 225,431.5C 227.087,432.794 229.254,433.961 231.5,435C 234.429,437.91 235.095,441.243 233.5,445C 228.254,446.506 222.921,446.839 217.5,446C 199.777,442.237 182.444,437.237 165.5,431C 158.441,424.729 151.941,417.896 146,410.5C 142.473,406.446 140.306,401.78 139.5,396.5C 145.284,395.219 150.95,395.719 156.5,398C 169.359,405.928 181.692,414.595 193.5,424C 199.077,427.469 205.077,429.636 211.5,430.5C 211.169,424.346 210.003,418.346 208,412.5C 199.333,385.833 190.667,359.167 182,332.5C 180.723,328.903 180.39,325.236 181,321.5C 183.541,316.931 187.375,315.431 192.5,317C 203.591,322.045 214.591,327.378 225.5,333C 227.833,333.333 230.167,333.667 232.5,334C 238.248,337.958 244.081,341.791 250,345.5C 249.789,336.692 248.456,328.025 246,319.5C 232.613,301.779 219.613,283.779 207,265.5C 205.612,266.554 204.112,266.72 202.5,266C 183.875,252.292 185.709,241.792 208,234.5C 210.82,235.32 212.654,237.154 213.5,240C 216.49,240.897 219.49,241.731 222.5,242.5C 222.833,243.5 223.167,244.5 223.5,245.5C 222.072,250.794 221.239,256.127 221,261.5C 229.305,273.971 237.805,286.304 246.5,298.5C 250.275,291.933 254.275,285.6 258.5,279.5 Z"/></g>
<g><path style="opacity:0.129" fill="#3a3a3a" d="M 3.5,317.5 C 4.64327,320.976 4.80993,324.642 4,328.5C 3.50137,324.848 3.3347,321.182 3.5,317.5 Z"/></g>
<g><path style="opacity:0.004" fill="#666666" d="M 614.5,331.5 C 615.525,331.897 615.692,332.563 615,333.5C 614.536,332.906 614.369,332.239 614.5,331.5 Z"/></g>
<g><path style="opacity:0.071" fill="#3e3e3e" d="M 4.5,331.5 C 5.62914,333.628 5.79581,335.961 5,338.5C 4.50335,336.19 4.33669,333.857 4.5,331.5 Z"/></g>
<g><path style="opacity:0.004" fill="#616161" d="M 613.5,340.5 C 614.573,341.251 614.74,342.251 614,343.5C 613.517,342.552 613.351,341.552 613.5,340.5 Z"/></g>
<g><path style="opacity:0.016" fill="#4d4d4d" d="M 5.5,340.5 C 6.62247,342.288 6.78914,344.288 6,346.5C 5.50454,344.527 5.33788,342.527 5.5,340.5 Z"/></g>
<g><path style="opacity:0.004" fill="#5c5c5c" d="M 612.5,347.5 C 613.573,348.251 613.74,349.251 613,350.5C 612.517,349.552 612.351,348.552 612.5,347.5 Z"/></g>
<g><path style="opacity:0.004" fill="#454545" d="M 6.5,347.5 C 7.59832,348.601 7.76498,349.934 7,351.5C 6.50999,350.207 6.34332,348.873 6.5,347.5 Z"/></g>
<g><path style="opacity:0.004" fill="#afb0af" d="M 7.5,353.5 C 8.83333,354.167 8.83333,354.167 7.5,353.5 Z"/></g>
<g><path style="opacity:0.004" fill="#636363" d="M 611.5,353.5 C 612.573,354.251 612.74,355.251 612,356.5C 611.517,355.552 611.351,354.552 611.5,353.5 Z"/></g>
<g><path style="opacity:0.004" fill="#4a4a4a" d="M 610.5,359.5 C 611.573,360.251 611.74,361.251 611,362.5C 610.517,361.552 610.351,360.552 610.5,359.5 Z"/></g>
<g><path style="opacity:0.004" fill="#4f4f4f" d="M 609.5,364.5 C 610.598,365.601 610.765,366.934 610,368.5C 609.51,367.207 609.343,365.873 609.5,364.5 Z"/></g>
<g><path style="opacity:0.004" fill="#606160" d="M 10.5,369.5 C 11.8333,370.167 11.8333,370.167 10.5,369.5 Z"/></g>
<g><path style="opacity:0.004" fill="#292929" d="M 608.5,369.5 C 609.525,369.897 609.692,370.563 609,371.5C 608.536,370.906 608.369,370.239 608.5,369.5 Z"/></g>
<g><path style="opacity:0.004" fill="#3d3d3d" d="M 11.5,373.5 C 12.5735,374.251 12.7401,375.251 12,376.5C 11.5172,375.552 11.3505,374.552 11.5,373.5 Z"/></g>
<g><path style="opacity:0.008" fill="#404040" d="M 12.5,377.5 C 13.5735,378.251 13.7401,379.251 13,380.5C 12.5172,379.552 12.3505,378.552 12.5,377.5 Z"/></g>
<g><path style="opacity:0.008" fill="#434343" d="M 13.5,381.5 C 14.5735,382.251 14.7401,383.251 14,384.5C 13.5172,383.552 13.3505,382.552 13.5,381.5 Z"/></g>
<g><path style="opacity:0.008" fill="#4e4e4e" d="M 15.5,388.5 C 14.4265,387.749 14.2599,386.749 15,385.5C 15.4828,386.448 15.6495,387.448 15.5,388.5 Z"/></g>
<g><path style="opacity:0.008" fill="#505050" d="M 15.5,388.5 C 16.404,389.209 16.7373,390.209 16.5,391.5C 15.596,390.791 15.2627,389.791 15.5,388.5 Z"/></g>
<g><path style="opacity:1" fill="#1b1b1b" d="M 391.5,362.5 C 400.09,366.128 408.423,370.295 416.5,375C 435.822,387.142 448.155,404.309 453.5,426.5C 450.399,426.308 447.399,425.642 444.5,424.5C 443.893,424.624 443.56,424.957 443.5,425.5C 426.197,404.525 408.863,383.525 391.5,362.5 Z"/></g>
<g><path style="opacity:0.012" fill="#575757" d="M 16.5,391.5 C 17.5735,392.251 17.7401,393.251 17,394.5C 16.5172,393.552 16.3505,392.552 16.5,391.5 Z"/></g>
<g><path style="opacity:0.004" fill="#343434" d="M 17.5,395.5 C 18.525,395.897 18.6917,396.563 18,397.5C 17.5357,396.906 17.369,396.239 17.5,395.5 Z"/></g>
<g><path style="opacity:0.004" fill="#1b1b1b" d="M 18.5,398.5 C 19.525,398.897 19.6917,399.563 19,400.5C 18.5357,399.906 18.369,399.239 18.5,398.5 Z"/></g>
<g><path style="opacity:0.004" fill="#212121" d="M 19.5,401.5 C 20.525,401.897 20.6917,402.563 20,403.5C 19.5357,402.906 19.369,402.239 19.5,401.5 Z"/></g>
<g><path style="opacity:0.004" fill="#484848" d="M 20.5,404.5 C 21.525,404.897 21.6917,405.563 21,406.5C 20.5357,405.906 20.369,405.239 20.5,404.5 Z"/></g>
<g><path style="opacity:0.004" fill="#5f5f5f" d="M 22.5,409.5 C 21.475,409.103 21.3083,408.437 22,407.5C 22.4643,408.094 22.631,408.761 22.5,409.5 Z"/></g>
<g><path style="opacity:0.004" fill="#383838" d="M 22.5,409.5 C 23.525,409.897 23.6917,410.563 23,411.5C 22.5357,410.906 22.369,410.239 22.5,409.5 Z"/></g>
<g><path style="opacity:0.004" fill="#484848" d="M 596.5,409.5 C 597.525,409.897 597.692,410.563 597,411.5C 596.536,410.906 596.369,410.239 596.5,409.5 Z"/></g>
<g><path style="opacity:0.004" fill="#464646" d="M 24.5,414.5 C 23.475,414.103 23.3083,413.437 24,412.5C 24.4643,413.094 24.631,413.761 24.5,414.5 Z"/></g>
<g><path style="opacity:0.004" fill="#4a4a4a" d="M 595.5,414.5 C 595.369,413.761 595.536,413.094 596,412.5C 596.692,413.437 596.525,414.103 595.5,414.5 Z"/></g>
<g><path style="opacity:0.004" fill="#343434" d="M 24.5,414.5 C 25.525,414.897 25.6917,415.563 25,416.5C 24.5357,415.906 24.369,415.239 24.5,414.5 Z"/></g>
<g><path style="opacity:0.008" fill="#373737" d="M 595.5,414.5 C 595.631,415.239 595.464,415.906 595,416.5C 594.308,415.563 594.475,414.897 595.5,414.5 Z"/></g>
<g><path style="opacity:0.004" fill="#3c3d3c" d="M 25.5,417.5 C 26.8333,418.167 26.8333,418.167 25.5,417.5 Z"/></g>
<g><path style="opacity:0.016" fill="#4e4e4e" d="M 593.5,419.5 C 593.369,418.761 593.536,418.094 594,417.5C 594.692,418.437 594.525,419.103 593.5,419.5 Z"/></g>
<g><path style="opacity:0.004" fill="#343434" d="M 26.5,419.5 C 27.525,419.897 27.6917,420.563 27,421.5C 26.5357,420.906 26.369,420.239 26.5,419.5 Z"/></g>
<g><path style="opacity:0.027" fill="#3f3f3f" d="M 593.5,419.5 C 593.631,420.239 593.464,420.906 593,421.5C 592.308,420.563 592.475,419.897 593.5,419.5 Z"/></g>
<g><path style="opacity:0.004" fill="#090a09" d="M 27.5,422.5 C 28.8333,423.167 28.8333,423.167 27.5,422.5 Z"/></g>
<g><path style="opacity:0.012" fill="#787878" d="M 591.5,424.5 C 591.369,423.761 591.536,423.094 592,422.5C 592.692,423.437 592.525,424.103 591.5,424.5 Z"/></g>
<g><path style="opacity:0.004" fill="#373737" d="M 29.5,426.5 C 28.475,426.103 28.3083,425.437 29,424.5C 29.4643,425.094 29.631,425.761 29.5,426.5 Z"/></g>
<g><path style="opacity:0.004" fill="#353535" d="M 591.5,424.5 C 591.672,425.492 591.338,426.158 590.5,426.5C 590.328,425.508 590.662,424.842 591.5,424.5 Z"/></g>
<g><path style="opacity:0.004" fill="#a1a2a1" d="M 590.5,426.5 C 589.833,427.167 589.833,427.167 590.5,426.5 Z"/></g>
<g><path style="opacity:0.004" fill="#444444" d="M 29.5,426.5 C 30.525,426.897 30.6917,427.563 30,428.5C 29.5357,427.906 29.369,427.239 29.5,426.5 Z"/></g>
<g><path style="opacity:0.004" fill="#131413" d="M 30.5,429.5 C 31.8333,430.167 31.8333,430.167 30.5,429.5 Z"/></g>
<g><path style="opacity:0.004" fill="#010201" d="M 31.5,431.5 C 32.8333,432.167 32.8333,432.167 31.5,431.5 Z"/></g>
<g><path style="opacity:0.004" fill="#6d6d6d" d="M 33.5,435.5 C 32.475,435.103 32.3083,434.437 33,433.5C 33.4643,434.094 33.631,434.761 33.5,435.5 Z"/></g>
<g><path style="opacity:0.004" fill="#383938" d="M 33.5,435.5 C 34.8333,436.167 34.8333,436.167 33.5,435.5 Z"/></g>
<g><path style="opacity:0.004" fill="#282928" d="M 34.5,437.5 C 35.8333,438.167 35.8333,438.167 34.5,437.5 Z"/></g>
<g><path style="opacity:0.004" fill="#6c6c6c" d="M 36.5,441.5 C 35.475,441.103 35.3083,440.437 36,439.5C 36.4643,440.094 36.631,440.761 36.5,441.5 Z"/></g>
<g><path style="opacity:0.004" fill="#303130" d="M 36.5,441.5 C 37.8333,442.167 37.8333,442.167 36.5,441.5 Z"/></g>
<g><path style="opacity:0.004" fill="#707070" d="M 38.5,445.5 C 37.475,445.103 37.3083,444.437 38,443.5C 38.4643,444.094 38.631,444.761 38.5,445.5 Z"/></g>
<g><path style="opacity:0.004" fill="#101110" d="M 38.5,445.5 C 39.8333,446.167 39.8333,446.167 38.5,445.5 Z"/></g>
<g><path style="opacity:0.008" fill="#000000" d="M 40.5,448.5 C 39.8333,447.167 39.8333,447.167 40.5,448.5 Z"/></g>
<g><path style="opacity:0.012" fill="#585858" d="M 40.5,448.5 C 41.3382,448.842 41.6716,449.508 41.5,450.5C 40.6618,450.158 40.3284,449.492 40.5,448.5 Z"/></g>
<g><path style="opacity:0.016" fill="#4d4d4d" d="M 41.5,450.5 C 42.3382,450.842 42.6716,451.508 42.5,452.5C 41.6618,452.158 41.3284,451.492 41.5,450.5 Z"/></g>
<g><path style="opacity:0.02" fill="#737373" d="M 42.5,452.5 C 43.3382,452.842 43.6716,453.508 43.5,454.5C 42.6618,454.158 42.3284,453.492 42.5,452.5 Z"/></g>
<g><path style="opacity:0.035" fill="#232423" d="M 43.5,454.5 C 44.8333,455.167 44.8333,455.167 43.5,454.5 Z"/></g>
<g><path style="opacity:0.027" fill="#151615" d="M 45.5,457.5 C 44.8333,456.167 44.8333,456.167 45.5,457.5 Z"/></g>
<g><path style="opacity:0.012" fill="#404040" d="M 45.5,457.5 C 46.3382,457.842 46.6716,458.508 46.5,459.5C 45.6618,459.158 45.3284,458.492 45.5,457.5 Z"/></g>
<g><path style="opacity:0.02" fill="#050605" d="M 46.5,459.5 C 47.8333,460.167 47.8333,460.167 46.5,459.5 Z"/></g>
<g><path style="opacity:0.008" fill="#020302" d="M 48.5,462.5 C 47.8333,461.167 47.8333,461.167 48.5,462.5 Z"/></g>
<g><path style="opacity:0.01" fill="#747474" d="M 48.5,462.5 C 49.3382,462.842 49.6716,463.508 49.5,464.5C 48.6618,464.158 48.3284,463.492 48.5,462.5 Z"/></g>
<g><path style="opacity:0.008" fill="#212221" d="M 49.5,464.5 C 50.1667,464.5 50.5,464.833 50.5,465.5C 50.1667,465.167 49.8333,464.833 49.5,464.5 Z"/></g>
<g><path style="opacity:0.004" fill="#484848" d="M 50.5,465.5 C 51.3382,465.842 51.6716,466.508 51.5,467.5C 50.6618,467.158 50.3284,466.492 50.5,465.5 Z"/></g>
<g><path style="opacity:0.012" fill="#383938" d="M 51.5,467.5 C 52.8333,468.167 52.8333,468.167 51.5,467.5 Z"/></g>
<g><path style="opacity:0.008" fill="#020302" d="M 53.5,470.5 C 52.8333,469.167 52.8333,469.167 53.5,470.5 Z"/></g>
<g><path style="opacity:0.012" fill="#404140" d="M 53.5,470.5 C 54.8333,471.167 54.8333,471.167 53.5,470.5 Z"/></g>
<g><path style="opacity:0.008" fill="#323332" d="M 55.5,473.5 C 54.8333,472.167 54.8333,472.167 55.5,473.5 Z"/></g>
<g><path style="opacity:0.004" fill="#898989" d="M 55.5,473.5 C 56.3382,473.842 56.6716,474.508 56.5,475.5C 55.6618,475.158 55.3284,474.492 55.5,473.5 Z"/></g>
<g><path style="opacity:0.008" fill="#202120" d="M 56.5,475.5 C 57.1667,475.5 57.5,475.833 57.5,476.5C 57.1667,476.167 56.8333,475.833 56.5,475.5 Z"/></g>
<g><path style="opacity:0.008" fill="#303130" d="M 57.5,476.5 C 58.8333,477.167 58.8333,477.167 57.5,476.5 Z"/></g>
<g><path style="opacity:0.004" fill="#151615" d="M 60.5,480.5 C 59.8333,479.167 59.8333,479.167 60.5,480.5 Z"/></g>
<g><path style="opacity:0.008" fill="#9b9c9b" d="M 60.5,480.5 C 61.8333,481.167 61.8333,481.167 60.5,480.5 Z"/></g>
<g><path style="opacity:0.004" fill="#727372" d="M 558.5,480.5 C 559.833,481.167 559.833,481.167 558.5,480.5 Z"/></g>
<g><path style="opacity:0.004" fill="#282928" d="M 62.5,483.5 C 61.8333,482.167 61.8333,482.167 62.5,483.5 Z"/></g>
<g><path style="opacity:0.004" fill="#090a09" d="M 557.5,482.5 C 558.833,483.167 558.833,483.167 557.5,482.5 Z"/></g>
<g><path style="opacity:0.008" fill="#0a0b0a" d="M 62.5,483.5 C 63.8333,484.167 63.8333,484.167 62.5,483.5 Z"/></g>
<g><path style="opacity:0.004" fill="#191a19" d="M 557.5,483.5 C 556.833,484.167 556.833,484.167 557.5,483.5 Z"/></g>
<g><path style="opacity:0.008" fill="#abacab" d="M 556.5,484.5 C 555.833,485.167 555.833,485.167 556.5,484.5 Z"/></g>
<g><path style="opacity:0.004" fill="#5b5c5b" d="M 64.5,486.5 C 63.8333,485.167 63.8333,485.167 64.5,486.5 Z"/></g>
<g><path style="opacity:0.012" fill="#323332" d="M 64.5,486.5 C 65.1667,486.5 65.5,486.833 65.5,487.5C 65.1667,487.167 64.8333,486.833 64.5,486.5 Z"/></g>
<g><path style="opacity:0.004" fill="#272827" d="M 554.5,486.5 C 555.833,487.167 555.833,487.167 554.5,486.5 Z"/></g>
<g><path style="opacity:0.024" fill="#1c1d1c" d="M 65.5,487.5 C 66.1667,487.5 66.5,487.833 66.5,488.5C 66.1667,488.167 65.8333,487.833 65.5,487.5 Z"/></g>
<g><path style="opacity:0.008" fill="#2e2f2e" d="M 554.5,487.5 C 553.833,488.167 553.833,488.167 554.5,487.5 Z"/></g>
<g><path style="opacity:0.024" fill="#848484" d="M 66.5,488.5 C 67.3382,488.842 67.6716,489.508 67.5,490.5C 66.6618,490.158 66.3284,489.492 66.5,488.5 Z"/></g>
<g><path style="opacity:0.004" fill="#737373" d="M 553.5,488.5 C 553.672,489.492 553.338,490.158 552.5,490.5C 552.328,489.508 552.662,488.842 553.5,488.5 Z"/></g>
<g><path style="opacity:0.043" fill="#0f100f" d="M 67.5,490.5 C 68.1667,490.5 68.5,490.833 68.5,491.5C 68.1667,491.167 67.8333,490.833 67.5,490.5 Z"/></g>
<g><path style="opacity:0.008" fill="#000000" d="M 552.5,490.5 C 551.833,491.167 551.833,491.167 552.5,490.5 Z"/></g>
<g><path style="opacity:0.078" fill="#131413" d="M 68.5,491.5 C 69.1667,491.5 69.5,491.833 69.5,492.5C 69.1667,492.167 68.8333,491.833 68.5,491.5 Z"/></g>
<g><path style="opacity:0.016" fill="#161716" d="M 551.5,491.5 C 550.833,492.167 550.833,492.167 551.5,491.5 Z"/></g>
<g><path style="opacity:0.125" fill="#3d3e3d" d="M 69.5,492.5 C 70.8333,493.167 70.8333,493.167 69.5,492.5 Z"/></g>
<g><path style="opacity:0.031" fill="#444544" d="M 550.5,492.5 C 549.833,493.167 549.833,493.167 550.5,492.5 Z"/></g>
<g><path style="opacity:0.11" fill="#474847" d="M 71.5,495.5 C 70.8333,494.167 70.8333,494.167 71.5,495.5 Z"/></g>
<g><path style="opacity:0.016" fill="#464746" d="M 548.5,494.5 C 549.833,495.167 549.833,495.167 548.5,494.5 Z"/></g>
<g><path style="opacity:0.153" fill="#1a1b1a" d="M 71.5,495.5 C 72.1667,495.5 72.5,495.833 72.5,496.5C 72.1667,496.167 71.8333,495.833 71.5,495.5 Z"/></g>
<g><path style="opacity:0.031" fill="#373837" d="M 548.5,495.5 C 547.833,496.167 547.833,496.167 548.5,495.5 Z"/></g>
<g><path style="opacity:0.204" fill="#1c1d1c" d="M 72.5,496.5 C 73.1667,496.5 73.5,496.833 73.5,497.5C 73.1667,497.167 72.8333,496.833 72.5,496.5 Z"/></g>
<g><path style="opacity:0.055" fill="#0e0f0e" d="M 547.5,496.5 C 546.833,497.167 546.833,497.167 547.5,496.5 Z"/></g>
<g><path style="opacity:0.247" fill="#3e3f3e" d="M 73.5,497.5 C 74.1667,497.5 74.5,497.833 74.5,498.5C 74.1667,498.167 73.8333,497.833 73.5,497.5 Z"/></g>
<g><path style="opacity:0.078" fill="#474847" d="M 546.5,497.5 C 545.833,498.167 545.833,498.167 546.5,497.5 Z"/></g>
<g><path style="opacity:0.161" fill="#9d9d9d" d="M 74.5,498.5 C 75.3382,498.842 75.6716,499.508 75.5,500.5C 74.6618,500.158 74.3284,499.492 74.5,498.5 Z"/></g>
<g><path style="opacity:0.043" fill="#999999" d="M 545.5,498.5 C 545.672,499.492 545.338,500.158 544.5,500.5C 544.328,499.508 544.662,498.842 545.5,498.5 Z"/></g>
<g><path style="opacity:0.173" fill="#585958" d="M 75.5,500.5 C 76.1667,500.5 76.5,500.833 76.5,501.5C 76.1667,501.167 75.8333,500.833 75.5,500.5 Z"/></g>
<g><path style="opacity:0.071" fill="#2d2e2d" d="M 544.5,500.5 C 543.833,501.167 543.833,501.167 544.5,500.5 Z"/></g>
<g><path style="opacity:0.184" fill="#2b2c2b" d="M 76.5,501.5 C 77.1667,501.5 77.5,501.833 77.5,502.5C 77.1667,502.167 76.8333,501.833 76.5,501.5 Z"/></g>
<g><path style="opacity:0.098" fill="#020302" d="M 543.5,501.5 C 542.833,502.167 542.833,502.167 543.5,501.5 Z"/></g>
<g><path style="opacity:0.184" fill="#272827" d="M 77.5,502.5 C 78.1667,502.5 78.5,502.833 78.5,503.5C 78.1667,503.167 77.8333,502.833 77.5,502.5 Z"/></g>
<g><path style="opacity:0.133" fill="#101110" d="M 542.5,502.5 C 541.833,503.167 541.833,503.167 542.5,502.5 Z"/></g>
<g><path style="opacity:0.176" fill="#212221" d="M 78.5,503.5 C 79.1667,503.5 79.5,503.833 79.5,504.5C 79.1667,504.167 78.8333,503.833 78.5,503.5 Z"/></g>
<g><path style="opacity:0.165" fill="#262726" d="M 541.5,503.5 C 540.833,504.167 540.833,504.167 541.5,503.5 Z"/></g>
<g><path style="opacity:0.169" fill="#3f403f" d="M 79.5,504.5 C 80.1667,504.5 80.5,504.833 80.5,505.5C 80.1667,505.167 79.8333,504.833 79.5,504.5 Z"/></g>
<g><path style="opacity:0.208" fill="#333433" d="M 540.5,504.5 C 539.833,505.167 539.833,505.167 540.5,504.5 Z"/></g>
<g><path style="opacity:0.153" fill="#656665" d="M 80.5,505.5 C 81.1667,505.5 81.5,505.833 81.5,506.5C 81.1667,506.167 80.8333,505.833 80.5,505.5 Z"/></g>
<g><path style="opacity:0.09" fill="#9b9b9b" d="M 539.5,505.5 C 539.672,506.492 539.338,507.158 538.5,507.5C 538.328,506.508 538.662,505.842 539.5,505.5 Z"/></g>
<g><path style="opacity:0.051" fill="#8f8f8f" d="M 81.5,506.5 C 82.3382,506.842 82.6716,507.508 82.5,508.5C 81.6618,508.158 81.3284,507.492 81.5,506.5 Z"/></g>
<g><path style="opacity:0.11" fill="#747574" d="M 538.5,507.5 C 537.833,508.167 537.833,508.167 538.5,507.5 Z"/></g>
<g><path style="opacity:0.047" fill="#4f504f" d="M 82.5,508.5 C 83.1667,508.5 83.5,508.833 83.5,509.5C 83.1667,509.167 82.8333,508.833 82.5,508.5 Z"/></g>
<g><path style="opacity:0.118" fill="#656665" d="M 537.5,508.5 C 536.833,509.167 536.833,509.167 537.5,508.5 Z"/></g>
<g><path style="opacity:0.039" fill="#565756" d="M 83.5,509.5 C 84.1667,509.5 84.5,509.833 84.5,510.5C 84.1667,510.167 83.8333,509.833 83.5,509.5 Z"/></g>
<g><path style="opacity:0.122" fill="#191a19" d="M 536.5,509.5 C 535.833,510.167 535.833,510.167 536.5,509.5 Z"/></g>
<g><path style="opacity:0.031" fill="#2a2b2a" d="M 84.5,510.5 C 85.1667,510.5 85.5,510.833 85.5,511.5C 85.1667,511.167 84.8333,510.833 84.5,510.5 Z"/></g>
<g><path style="opacity:0.114" fill="#101110" d="M 535.5,510.5 C 534.833,511.167 534.833,511.167 535.5,510.5 Z"/></g>
<g><path style="opacity:0.027" fill="#1a1b1a" d="M 85.5,511.5 C 86.1667,511.5 86.5,511.833 86.5,512.5C 86.1667,512.167 85.8333,511.833 85.5,511.5 Z"/></g>
<g><path style="opacity:0.102" fill="#1f201f" d="M 534.5,511.5 C 533.833,512.167 533.833,512.167 534.5,511.5 Z"/></g>
<g><path style="opacity:0.024" fill="#212221" d="M 86.5,512.5 C 87.1667,512.5 87.5,512.833 87.5,513.5C 87.1667,513.167 86.8333,512.833 86.5,512.5 Z"/></g>
<g><path style="opacity:0.082" fill="#111211" d="M 533.5,512.5 C 532.833,513.167 532.833,513.167 533.5,512.5 Z"/></g>
<g><path style="opacity:0.024" fill="#262726" d="M 87.5,513.5 C 88.1667,513.5 88.5,513.833 88.5,514.5C 88.1667,514.167 87.8333,513.833 87.5,513.5 Z"/></g>
<g><path style="opacity:0.067" fill="#050605" d="M 532.5,513.5 C 531.833,514.167 531.833,514.167 532.5,513.5 Z"/></g>
<g><path style="opacity:0.024" fill="#303130" d="M 88.5,514.5 C 89.1667,514.5 89.5,514.833 89.5,515.5C 89.1667,515.167 88.8333,514.833 88.5,514.5 Z"/></g>
<g><path style="opacity:0.043" fill="#313231" d="M 531.5,514.5 C 530.833,515.167 530.833,515.167 531.5,514.5 Z"/></g>
<g><path style="opacity:0.024" fill="#303130" d="M 89.5,515.5 C 90.1667,515.5 90.5,515.833 90.5,516.5C 90.1667,516.167 89.8333,515.833 89.5,515.5 Z"/></g>
<g><path style="opacity:0.027" fill="#232423" d="M 530.5,515.5 C 529.833,516.167 529.833,516.167 530.5,515.5 Z"/></g>
<g><path style="opacity:0.027" fill="#2a2b2a" d="M 90.5,516.5 C 91.1667,516.5 91.5,516.833 91.5,517.5C 91.1667,517.167 90.8333,516.833 90.5,516.5 Z"/></g>
<g><path style="opacity:0.02" fill="#363736" d="M 529.5,516.5 C 528.833,517.167 528.833,517.167 529.5,516.5 Z"/></g>
<g><path style="opacity:0.027" fill="#2d2e2d" d="M 91.5,517.5 C 92.1667,517.5 92.5,517.833 92.5,518.5C 92.1667,518.167 91.8333,517.833 91.5,517.5 Z"/></g>
<g><path style="opacity:0.008" fill="#151615" d="M 528.5,517.5 C 527.833,518.167 527.833,518.167 528.5,517.5 Z"/></g>
<g><path style="opacity:0.027" fill="#323332" d="M 92.5,518.5 C 93.1667,518.5 93.5,518.833 93.5,519.5C 93.1667,519.167 92.8333,518.833 92.5,518.5 Z"/></g>
<g><path style="opacity:0.004" fill="#1a1b1a" d="M 527.5,518.5 C 526.833,519.167 526.833,519.167 527.5,518.5 Z"/></g>
<g><path style="opacity:0.031" fill="#313231" d="M 93.5,519.5 C 94.1667,519.5 94.5,519.833 94.5,520.5C 94.1667,520.167 93.8333,519.833 93.5,519.5 Z"/></g>
<g><path style="opacity:0.004" fill="#343534" d="M 526.5,519.5 C 525.833,520.167 525.833,520.167 526.5,519.5 Z"/></g>
<g><path style="opacity:0.035" fill="#2d2e2d" d="M 94.5,520.5 C 95.1667,520.5 95.5,520.833 95.5,521.5C 95.1667,521.167 94.8333,520.833 94.5,520.5 Z"/></g>
<g><path style="opacity:0.035" fill="#2a2b2a" d="M 95.5,521.5 C 96.1667,521.5 96.5,521.833 96.5,522.5C 96.1667,522.167 95.8333,521.833 95.5,521.5 Z"/></g>
<g><path style="opacity:0.039" fill="#1f201f" d="M 96.5,522.5 C 97.1667,522.5 97.5,522.833 97.5,523.5C 97.1667,523.167 96.8333,522.833 96.5,522.5 Z"/></g>
<g><path style="opacity:0.035" fill="#272827" d="M 97.5,523.5 C 98.1667,523.5 98.5,523.833 98.5,524.5C 98.1667,524.167 97.8333,523.833 97.5,523.5 Z"/></g>
<g><path style="opacity:0.035" fill="#242524" d="M 98.5,524.5 C 99.1667,524.5 99.5,524.833 99.5,525.5C 99.1667,525.167 98.8333,524.833 98.5,524.5 Z"/></g>
<g><path style="opacity:0.031" fill="#212221" d="M 99.5,525.5 C 100.167,525.5 100.5,525.833 100.5,526.5C 100.167,526.167 99.8333,525.833 99.5,525.5 Z"/></g>
<g><path style="opacity:0.024" fill="#232423" d="M 100.5,526.5 C 101.167,526.5 101.5,526.833 101.5,527.5C 101.167,527.167 100.833,526.833 100.5,526.5 Z"/></g>
<g><path style="opacity:0.02" fill="#222322" d="M 101.5,527.5 C 102.167,527.5 102.5,527.833 102.5,528.5C 102.167,528.167 101.833,527.833 101.5,527.5 Z"/></g>
<g><path style="opacity:0.012" fill="#363736" d="M 102.5,528.5 C 103.167,528.5 103.5,528.833 103.5,529.5C 103.167,529.167 102.833,528.833 102.5,528.5 Z"/></g>
<g><path style="opacity:0.012" fill="#525352" d="M 103.5,529.5 C 104.167,529.5 104.5,529.833 104.5,530.5C 104.167,530.167 103.833,529.833 103.5,529.5 Z"/></g>
<g><path style="opacity:0.008" fill="#838483" d="M 104.5,530.5 C 105.167,530.5 105.5,530.833 105.5,531.5C 105.167,531.167 104.833,530.833 104.5,530.5 Z"/></g>
<g><path style="opacity:0.004" fill="#aaabaa" d="M 513.5,530.5 C 514.833,531.167 514.833,531.167 513.5,530.5 Z"/></g>
<g><path style="opacity:0.02" fill="#9d9d9d" d="M 105.5,531.5 C 106.492,531.328 107.158,531.662 107.5,532.5C 106.508,532.672 105.842,532.338 105.5,531.5 Z"/></g>
<g><path style="opacity:0.012" fill="#565756" d="M 107.5,532.5 C 108.167,532.5 108.5,532.833 108.5,533.5C 108.167,533.167 107.833,532.833 107.5,532.5 Z"/></g>
<g><path style="opacity:0.004" fill="#2d2e2d" d="M 511.5,532.5 C 512.833,533.167 512.833,533.167 511.5,532.5 Z"/></g>
<g><path style="opacity:0.008" fill="#363736" d="M 108.5,533.5 C 109.167,533.5 109.5,533.833 109.5,534.5C 109.167,534.167 108.833,533.833 108.5,533.5 Z"/></g>
<g><path style="opacity:0.008" fill="#1c1d1c" d="M 109.5,534.5 C 110.167,534.5 110.5,534.833 110.5,535.5C 110.167,535.167 109.833,534.833 109.5,534.5 Z"/></g>
<g><path style="opacity:0.004" fill="#222322" d="M 110.5,535.5 C 111.167,535.5 111.5,535.833 111.5,536.5C 111.167,536.167 110.833,535.833 110.5,535.5 Z"/></g>
<g><path style="opacity:0.004" fill="#454645" d="M 111.5,536.5 C 112.167,536.5 112.5,536.833 112.5,537.5C 112.167,537.167 111.833,536.833 111.5,536.5 Z"/></g>
<g><path style="opacity:0.008" fill="#939393" d="M 112.5,537.5 C 113.492,537.328 114.158,537.662 114.5,538.5C 113.508,538.672 112.842,538.338 112.5,537.5 Z"/></g>
<g><path style="opacity:0.008" fill="#515251" d="M 114.5,538.5 C 115.167,538.5 115.5,538.833 115.5,539.5C 115.167,539.167 114.833,538.833 114.5,538.5 Z"/></g>
<g><path style="opacity:0.008" fill="#141514" d="M 115.5,539.5 C 116.167,539.5 116.5,539.833 116.5,540.5C 116.167,540.167 115.833,539.833 115.5,539.5 Z"/></g>
<g><path style="opacity:0.008" fill="#151615" d="M 116.5,540.5 C 117.167,540.5 117.5,540.833 117.5,541.5C 117.167,541.167 116.833,540.833 116.5,540.5 Z"/></g>
<g><path style="opacity:0.004" fill="#646564" d="M 117.5,541.5 C 118.833,542.167 118.833,542.167 117.5,541.5 Z"/></g>
<g><path style="opacity:0.008" fill="#2d2e2d" d="M 120.5,543.5 C 119.833,542.167 119.833,542.167 120.5,543.5 Z"/></g>
<g><path style="opacity:0.008" fill="#262726" d="M 120.5,543.5 C 121.167,543.5 121.5,543.833 121.5,544.5C 121.167,544.167 120.833,543.833 120.5,543.5 Z"/></g>
<g><path style="opacity:0.004" fill="#171817" d="M 121.5,544.5 C 122.167,544.5 122.5,544.833 122.5,545.5C 122.167,545.167 121.833,544.833 121.5,544.5 Z"/></g>
<g><path style="opacity:0.012" fill="#838383" d="M 122.5,545.5 C 123.492,545.328 124.158,545.662 124.5,546.5C 123.508,546.672 122.842,546.338 122.5,545.5 Z"/></g>
<g><path style="opacity:0.012" fill="#343534" d="M 124.5,546.5 C 125.167,546.5 125.5,546.833 125.5,547.5C 125.167,547.167 124.833,546.833 124.5,546.5 Z"/></g>
<g><path style="opacity:0.008" fill="#030403" d="M 125.5,547.5 C 126.167,547.5 126.5,547.833 126.5,548.5C 126.167,548.167 125.833,547.833 125.5,547.5 Z"/></g>
<g><path style="opacity:0.02" fill="#858585" d="M 126.5,548.5 C 127.492,548.328 128.158,548.662 128.5,549.5C 127.508,549.672 126.842,549.338 126.5,548.5 Z"/></g>
<g><path style="opacity:0.016" fill="#171817" d="M 128.5,549.5 C 129.167,549.5 129.5,549.833 129.5,550.5C 129.167,550.167 128.833,549.833 128.5,549.5 Z"/></g>
<g><path style="opacity:0.012" fill="#282928" d="M 129.5,550.5 C 130.167,550.5 130.5,550.833 130.5,551.5C 130.167,551.167 129.833,550.833 129.5,550.5 Z"/></g>
<g><path style="opacity:0.016" fill="#868686" d="M 130.5,551.5 C 131.492,551.328 132.158,551.662 132.5,552.5C 131.508,552.672 130.842,552.338 130.5,551.5 Z"/></g>
<g><path style="opacity:0.016" fill="#1d1e1d" d="M 132.5,552.5 C 133.167,552.5 133.5,552.833 133.5,553.5C 133.167,553.167 132.833,552.833 132.5,552.5 Z"/></g>
<g><path style="opacity:0.008" fill="#262726" d="M 133.5,553.5 C 134.833,554.167 134.833,554.167 133.5,553.5 Z"/></g>
<g><path style="opacity:0.016" fill="#393a39" d="M 136.5,555.5 C 135.833,554.167 135.833,554.167 136.5,555.5 Z"/></g>
<g><path style="opacity:0.008" fill="#2d2e2d" d="M 136.5,555.5 C 137.167,555.5 137.5,555.833 137.5,556.5C 137.167,556.167 136.833,555.833 136.5,555.5 Z"/></g>
<g><path style="opacity:0.012" fill="#676767" d="M 137.5,556.5 C 138.492,556.328 139.158,556.662 139.5,557.5C 138.508,557.672 137.842,557.338 137.5,556.5 Z"/></g>
<g><path style="opacity:0.004" fill="#1a1b1a" d="M 139.5,557.5 C 140.167,557.5 140.5,557.833 140.5,558.5C 140.167,558.167 139.833,557.833 139.5,557.5 Z"/></g>
<g><path style="opacity:0.004" fill="#585858" d="M 140.5,558.5 C 141.239,558.369 141.906,558.536 142.5,559C 141.563,559.692 140.897,559.525 140.5,558.5 Z"/></g>
<g><path style="opacity:0.004" fill="#151615" d="M 144.5,560.5 C 145.833,561.167 145.833,561.167 144.5,560.5 Z"/></g>
<g><path style="opacity:0.004" fill="#aaabaa" d="M 146.5,561.5 C 147.833,562.167 147.833,562.167 146.5,561.5 Z"/></g>
<g><path style="opacity:0.004" fill="#8e8f8e" d="M 149.5,563.5 C 150.833,564.167 150.833,564.167 149.5,563.5 Z"/></g>
<g><path style="opacity:0.004" fill="#6e6f6e" d="M 155.5,567.5 C 154.833,566.167 154.833,566.167 155.5,567.5 Z"/></g>
<g><path style="opacity:0.004" fill="#252625" d="M 155.5,567.5 C 156.833,568.167 156.833,568.167 155.5,567.5 Z"/></g>
<g><path style="opacity:0.004" fill="#232423" d="M 157.5,568.5 C 158.833,569.167 158.833,569.167 157.5,568.5 Z"/></g>
<g><path style="opacity:0.004" fill="#414241" d="M 160.5,570.5 C 159.833,569.167 159.833,569.167 160.5,570.5 Z"/></g>
<g><path style="opacity:0.004" fill="#6e6e6e" d="M 160.5,570.5 C 161.492,570.328 162.158,570.662 162.5,571.5C 161.508,571.672 160.842,571.338 160.5,570.5 Z"/></g>
<g><path style="opacity:0.004" fill="#161716" d="M 162.5,571.5 C 163.833,572.167 163.833,572.167 162.5,571.5 Z"/></g>
<g><path style="opacity:0.004" fill="#191a19" d="M 164.5,572.5 C 165.833,573.167 165.833,573.167 164.5,572.5 Z"/></g>
<g><path style="opacity:0.004" fill="#151615" d="M 166.5,573.5 C 167.833,574.167 167.833,574.167 166.5,573.5 Z"/></g>
<g><path style="opacity:0.004" fill="#000000" d="M 168.5,574.5 C 169.833,575.167 169.833,575.167 168.5,574.5 Z"/></g>
<g><path style="opacity:0.004" fill="#3f403f" d="M 194.5,586.5 C 195.833,587.167 195.833,587.167 194.5,586.5 Z"/></g>
<g><path style="opacity:0.008" fill="#717171" d="M 198.5,588.5 C 197.761,588.631 197.094,588.464 196.5,588C 197.437,587.308 198.103,587.475 198.5,588.5 Z"/></g>
<g><path style="opacity:0.008" fill="#434343" d="M 198.5,588.5 C 199.239,588.369 199.906,588.536 200.5,589C 199.563,589.692 198.897,589.525 198.5,588.5 Z"/></g>
<g><path style="opacity:0.004" fill="#5e5e5e" d="M 419.5,589.5 C 419.897,588.475 420.563,588.308 421.5,589C 420.906,589.464 420.239,589.631 419.5,589.5 Z"/></g>
<g><path style="opacity:0.016" fill="#767676" d="M 203.5,590.5 C 202.761,590.631 202.094,590.464 201.5,590C 202.437,589.308 203.103,589.475 203.5,590.5 Z"/></g>
<g><path style="opacity:0.031" fill="#4b4b4b" d="M 416.5,590.5 C 416.897,589.475 417.563,589.308 418.5,590C 417.906,590.464 417.239,590.631 416.5,590.5 Z"/></g>
<g><path style="opacity:0.012" fill="#494949" d="M 203.5,590.5 C 204.239,590.369 204.906,590.536 205.5,591C 204.563,591.692 203.897,591.525 203.5,590.5 Z"/></g>
<g><path style="opacity:0.039" fill="#484848" d="M 416.5,590.5 C 416.103,591.525 415.437,591.692 414.5,591C 415.094,590.536 415.761,590.369 416.5,590.5 Z"/></g>
<g><path style="opacity:0.012" fill="#262626" d="M 206.5,592.5 C 206.897,591.475 207.563,591.308 208.5,592C 207.906,592.464 207.239,592.631 206.5,592.5 Z"/></g>
<g><path style="opacity:0.039" fill="#373737" d="M 411.5,592.5 C 411.897,591.475 412.563,591.308 413.5,592C 412.906,592.464 412.239,592.631 411.5,592.5 Z"/></g>
<g><path style="opacity:0.012" fill="#2b2b2b" d="M 209.5,593.5 C 209.897,592.475 210.563,592.308 211.5,593C 210.906,593.464 210.239,593.631 209.5,593.5 Z"/></g>
<g><path style="opacity:0.02" fill="#262626" d="M 408.5,593.5 C 408.897,592.475 409.563,592.308 410.5,593C 409.906,593.464 409.239,593.631 408.5,593.5 Z"/></g>
<g><path style="opacity:0.008" fill="#1d1d1d" d="M 212.5,594.5 C 212.897,593.475 213.563,593.308 214.5,594C 213.906,594.464 213.239,594.631 212.5,594.5 Z"/></g>
<g><path style="opacity:0.008" fill="#252525" d="M 405.5,594.5 C 405.897,593.475 406.563,593.308 407.5,594C 406.906,594.464 406.239,594.631 405.5,594.5 Z"/></g>
<g><path style="opacity:0.004" fill="#282928" d="M 216.5,594.5 C 217.833,595.167 217.833,595.167 216.5,594.5 Z"/></g>
<g><path style="opacity:0.004" fill="#3b3b3b" d="M 402.5,595.5 C 402.897,594.475 403.563,594.308 404.5,595C 403.906,595.464 403.239,595.631 402.5,595.5 Z"/></g>
<g><path style="opacity:0.004" fill="#313231" d="M 219.5,595.5 C 220.833,596.167 220.833,596.167 219.5,595.5 Z"/></g>
<g><path style="opacity:0.012" fill="#292929" d="M 376.5,602.5 C 377.251,601.427 378.251,601.26 379.5,602C 378.552,602.483 377.552,602.649 376.5,602.5 Z"/></g>
<g><path style="opacity:0.012" fill="#505050" d="M 371.5,603.5 C 372.601,602.402 373.934,602.235 375.5,603C 374.207,603.49 372.873,603.657 371.5,603.5 Z"/></g>
<g><path style="opacity:0.004" fill="#6a6b6a" d="M 366.5,603.5 C 367.833,604.167 367.833,604.167 366.5,603.5 Z"/></g>
<g><path style="opacity:0.004" fill="#656565" d="M 368.5,604.5 C 368.897,603.475 369.563,603.308 370.5,604C 369.906,604.464 369.239,604.631 368.5,604.5 Z"/></g>
<g><path style="opacity:0.004" fill="#4a4a4a" d="M 256.5,605.5 C 256.897,604.475 257.563,604.308 258.5,605C 257.906,605.464 257.239,605.631 256.5,605.5 Z"/></g>
<g><path style="opacity:0.008" fill="#545454" d="M 260.5,606.5 C 261.946,605.387 263.613,605.22 265.5,606C 263.866,606.494 262.199,606.66 260.5,606.5 Z"/></g>
<g><path style="opacity:0.016" fill="#525252" d="M 266.5,607.5 C 268.288,606.378 270.288,606.211 272.5,607C 270.527,607.495 268.527,607.662 266.5,607.5 Z"/></g>
<g><path style="opacity:0.004" fill="#434343" d="M 324.5,609.5 C 325.601,608.402 326.934,608.235 328.5,609C 327.207,609.49 325.873,609.657 324.5,609.5 Z"/></g>
</svg>
